<svg fill="none" xmlns="http://www.w3.org/2000/svg">
  <path
    d="M7.69971 9.73352V7.54602M7.69971 5.35852H7.70596M6.38721 12.9835L7.29971 14.2002C7.43541 14.3811 7.50326 14.4716 7.58643 14.5039C7.65929 14.5323 7.74012 14.5323 7.81298 14.5039C7.89616 14.4716 7.96401 14.3811 8.09971 14.2002L9.01221 12.9835C9.19542 12.7392 9.28703 12.6171 9.39877 12.5238C9.54776 12.3995 9.72365 12.3115 9.91252 12.267C10.0542 12.2335 10.2068 12.2335 10.5122 12.2335C11.3858 12.2335 11.8227 12.2335 12.1672 12.0908C12.6267 11.9005 12.9917 11.5355 13.182 11.0761C13.3247 10.7315 13.3247 10.2947 13.3247 9.42102V5.85852C13.3247 4.80842 13.3247 4.28337 13.1203 3.88229C12.9406 3.52948 12.6537 3.24265 12.3009 3.06288C11.8999 2.85852 11.3748 2.85852 10.3247 2.85852H5.07471C4.02461 2.85852 3.49956 2.85852 3.09847 3.06288C2.74567 3.24265 2.45883 3.52948 2.27907 3.88229C2.07471 4.28337 2.07471 4.80842 2.07471 5.85852V9.42102C2.07471 10.2947 2.07471 10.7315 2.21743 11.0761C2.40773 11.5355 2.77275 11.9005 3.23218 12.0908C3.57675 12.2335 4.01357 12.2335 4.88721 12.2335C5.19257 12.2335 5.34525 12.2335 5.4869 12.267C5.67576 12.3115 5.85165 12.3995 6.00064 12.5238C6.11238 12.6171 6.20399 12.7392 6.38721 12.9835Z"
    stroke="currentColor"
    stroke-linecap="round"
    stroke-linejoin="round"
  />
</svg>
