<svg viewBox="0 0 10 11" fill="none" xmlns="http://www.w3.org/2000/svg">
  <path
    d="M4.28968 10.3126L0.352179 6.18762C0.141242 5.95325 0.141242 5.60168 0.375617 5.39075C0.609992 5.17981 0.961554 5.17981 1.17249 5.41418L4.14905 8.53137L4.14905 0.562622C4.14905 0.234497 4.38343 0.00012186 4.71155 0.000121874C5.01624 0.000121887 5.27405 0.234497 5.27405 0.562622L5.27405 8.53137L8.22718 5.41418C8.43812 5.17981 8.81312 5.17981 9.02405 5.39075C9.25843 5.60168 9.25843 5.97668 9.04749 6.18762L5.10999 10.3126C4.9928 10.4298 4.85218 10.5001 4.71155 10.5001C4.54749 10.5001 4.40687 10.4298 4.28968 10.3126Z"
    fill="currentColor"
  />
</svg>
