<svg viewBox="0 0 11 10" fill="none" xmlns="http://www.w3.org/2000/svg">
  <path
    d="M10.5625 5.52637L6.4375 9.46387C6.20312 9.6748 5.85156 9.6748 5.64062 9.44043C5.42969 9.20605 5.42969 8.85449 5.66406 8.64355L8.78125 5.66699H0.8125C0.484375 5.66699 0.25 5.43262 0.25 5.10449C0.25 4.7998 0.484375 4.54199 0.8125 4.54199H8.78125L5.66406 1.58887C5.42969 1.37793 5.42969 1.00293 5.64062 0.791992C5.85156 0.557617 6.22656 0.557617 6.4375 0.768555L10.5625 4.70605C10.6797 4.82324 10.75 4.96387 10.75 5.10449C10.75 5.26855 10.6797 5.40918 10.5625 5.52637Z"
    fill="currentColor"
  />
</svg>
