<svg viewBox="0 0 54 72" fill="none" xmlns="http://www.w3.org/2000/svg">
  <path
    d="M29.2725 45.4515C27.4014 45.4515 27.0013 45.4543 26.5849 45.4571C25.2179 45.4654 23.8043 45.4793 22.3742 45.4682C17.3662 45.5099 11.2129 45.1128 6.45423 43.3633C6.36656 43.33 6.29544 43.4411 6.35845 43.5106C7.205 44.4158 8.11727 45.2598 9.0871 46.0346C13.3335 49.4168 18.6894 51.4354 24.5165 51.4354C27.837 51.4354 31.0067 50.78 33.897 49.5916C35.7216 48.8446 37.4394 47.8839 39.0146 46.7455C35.7791 46.0818 32.5902 45.4515 29.2725 45.4515Z"
    fill="currentColor"
  />
  <path
    d="M21.9827 41.7223C30.9357 41.7223 36.5411 36.9824 38.9656 31.054C39.8833 28.8048 40.3545 26.3947 40.3901 24.0011C40.423 21.6075 40.0231 19.2362 39.1902 17.0787C37.8369 13.5578 35.3081 10.5977 31.6399 9.0483C32.7356 10.5977 33.5192 12.2999 34.0069 14.0631C34.8014 16.9371 34.8122 19.9721 34.1192 22.7877C33.4205 25.6255 32.0097 28.2551 29.9741 30.2905C27.4976 32.7645 24.1195 34.35 19.9964 34.3639C13.8871 34.3862 7.64075 34.4056 1.5232 34.4056C1.2602 34.4056 1.08495 34.6888 1.2055 34.9248C4.35879 41.1697 15.4652 41.653 21.9856 41.7223H21.9827Z"
    fill="currentColor"
  />
  <path
    d="M29.2725 45.4515C27.4014 45.4515 27.0013 45.4543 26.5849 45.4571C25.2179 45.4654 23.8043 45.4793 22.3742 45.4682C17.3662 45.5099 11.2129 45.1128 6.45423 43.3633C6.36656 43.33 6.29544 43.4411 6.35845 43.5106C7.205 44.4158 8.11727 45.2598 9.0871 46.0346C13.3335 49.4168 18.6894 51.4354 24.5165 51.4354C27.837 51.4354 31.0067 50.78 33.897 49.5916C35.7216 48.8446 37.4394 47.8839 39.0146 46.7455C35.7791 46.0818 32.5902 45.4515 29.2725 45.4515Z"
    fill="currentColor"
  />
  <path
    d="M21.9827 41.7223C30.9357 41.7223 36.5411 36.9824 38.9656 31.054C39.8833 28.8048 40.3545 26.3947 40.3901 24.0011C40.423 21.6075 40.0231 19.2362 39.1902 17.0787C37.8369 13.5578 35.3081 10.5977 31.6399 9.0483C32.7356 10.5977 33.5192 12.2999 34.0069 14.0631C34.8014 16.9371 34.8122 19.9721 34.1192 22.7877C33.4205 25.6255 32.0097 28.2551 29.9741 30.2905C27.4976 32.7645 24.1195 34.35 19.9964 34.3639C13.8871 34.3862 7.64075 34.4056 1.5232 34.4056C1.2602 34.4056 1.08495 34.6888 1.2055 34.9248C4.35879 41.1697 15.4652 41.653 21.9856 41.7223H21.9827Z"
    fill="currentColor"
  />
  <path
    d="M53.2032 45.246L46.9705 37.3712L47.0965 37.0685C55.0551 20.5302 42.9377 0.704174 24.6042 0.765262C7.41863 1.05404 1.69564 15.5042 0.972384 17.5507C0.93129 17.6674 1.01618 17.7895 1.13946 17.7895C5.78858 17.7895 15.0841 18.281 15.8924 12.1999C16.6813 18.2894 25.9988 17.8034 30.6478 17.8006C30.7712 17.8006 30.8561 17.6757 30.815 17.559C29.0316 12.5137 25.6837 8.15142 21.3058 5.14142C32.7876 3.2699 43.5323 12.3193 44.0693 23.8345C44.0693 23.8818 44.0693 23.9289 44.0693 23.9761C44.472 31.5067 40.5735 38.4679 34.6094 42.1277L53.0305 45.5432C53.1922 45.5738 53.3046 45.3821 53.2004 45.2543L53.2032 45.246Z"
    fill="currentColor"
  />
  <path
    d="M0.961914 71.1495V61.8911H2.87485V65.405C3.06787 64.8278 3.82495 64.4217 4.80157 64.4217C5.71353 64.4217 6.48445 64.7498 7.08781 65.418C7.7039 66.0742 8.01251 66.8863 8.01251 67.8436C8.01251 68.8008 7.7039 69.614 7.08781 70.2832C6.48445 70.9395 5.71353 71.2664 4.80157 71.2664C3.82601 71.2664 3.06787 70.8593 2.87485 70.2832V71.1484H0.961914V71.1495ZM5.62341 69.025C5.94469 68.6968 6.09846 68.3037 6.09846 67.8446C6.09846 67.3855 5.94469 66.9924 5.62341 66.6773C5.30208 66.3492 4.91715 66.1922 4.45483 66.1922C3.99251 66.1922 3.58106 66.3492 3.24811 66.6773C2.92683 66.9924 2.76033 67.3855 2.76033 67.8446C2.76033 68.3037 2.92683 68.6968 3.24811 69.025C3.58212 69.34 3.97978 69.4971 4.45483 69.4971C4.92988 69.4971 5.30208 69.34 5.62341 69.025Z"
    fill="currentColor"
  />
  <path
    d="M8.67207 71.1495V61.8911H10.5851V71.1495H8.67207Z"
    fill="currentColor"
  />
  <path
    d="M11.6413 64.5398H13.5807V68.3167C13.5807 69.156 14.0558 69.5361 14.762 69.5361C15.4682 69.5361 15.9433 69.156 15.9433 68.3167V64.5398H17.8827V68.4868C17.8827 69.405 17.5869 70.1132 16.9835 70.5983C16.3929 71.0834 15.6475 71.3325 14.762 71.3325C13.8766 71.3325 13.1311 71.0834 12.5278 70.5983C11.9371 70.1132 11.6413 69.405 11.6413 68.4868V64.5398Z"
    fill="currentColor"
  />
  <path
    d="M20.9928 71.5426L18.3344 64.5398H20.2092L21.365 67.7136L23.0988 64.5668L24.8325 67.7136L25.9883 64.5398H27.8631L25.2047 71.5426L23.0988 67.7396L20.9928 71.5426Z"
    fill="currentColor"
  />
  <path
    d="M28.3784 71.1495V61.8911H30.2913V65.34C30.548 64.7628 31.2418 64.3957 32.1027 64.3957C33.6308 64.3957 34.5044 65.419 34.5044 67.1365V71.1495H32.5912V67.3725C32.5912 66.5994 32.1939 66.1262 31.4874 66.1262C30.7814 66.1262 30.2934 66.6632 30.2934 67.4375V71.1484H28.3806L28.3784 71.1495Z"
    fill="currentColor"
  />
  <path
    d="M40.4394 64.5398H42.3526V71.1495H40.4394V70.2843C40.2463 70.8615 39.4894 71.2675 38.5129 71.2675C37.6005 71.2675 36.8298 70.9394 36.214 70.2843C35.6104 69.6151 35.3017 68.8019 35.3017 67.8446C35.3017 66.8874 35.6104 66.0742 36.214 65.419C36.8298 64.7498 37.6005 64.4228 38.5129 64.4228C39.4883 64.4228 40.2463 64.8289 40.4394 65.406V64.5398ZM40.0548 69.0239C40.3885 68.6957 40.555 68.3027 40.555 67.8436C40.555 67.3844 40.3885 66.9914 40.0548 66.6762C39.7334 66.3481 39.3356 66.1911 38.8603 66.1911C38.3856 66.1911 38.0132 66.3481 37.6918 66.6762C37.3709 66.9914 37.217 67.3844 37.217 67.8436C37.217 68.3027 37.3709 68.6957 37.6918 69.0239C38.0132 69.339 38.3983 69.496 38.8603 69.496C39.3228 69.496 39.7344 69.339 40.0548 69.0239Z"
    fill="currentColor"
  />
  <path
    d="M43.623 71.1495V61.8911H45.5357V71.1495H43.623Z"
    fill="currentColor"
  />
  <path
    d="M46.5377 67.8316C46.5377 66.7953 46.8592 65.9691 47.5004 65.34C48.1561 64.6979 48.9777 64.3827 49.9659 64.3827C50.9546 64.3827 51.7253 64.7109 52.3289 65.353C52.932 65.9951 53.2407 66.7823 53.2407 67.7266C53.2407 67.9497 53.228 68.1727 53.2025 68.3687H48.451C48.4892 69.1559 49.1442 69.654 50.1589 69.654C51.084 69.654 51.8547 69.444 52.4578 69.012V70.7163C51.842 71.1224 51.0458 71.3195 50.056 71.3195C49.0031 71.3195 48.1561 71.0044 47.5004 70.3883C46.8581 69.7591 46.5377 68.9329 46.5377 67.8966V67.8306V67.8316ZM51.3147 67.0975C51.3147 66.5073 50.7244 66.0092 49.9659 66.0092C49.5686 66.0092 49.2217 66.1142 48.9257 66.3243C48.6297 66.5344 48.4764 66.7964 48.4637 67.0986H51.3147V67.0975Z"
    fill="currentColor"
  />
</svg>
