<svg viewBox="0 0 11 12" fill="none" xmlns="http://www.w3.org/2000/svg">
  <path
    d="M9.5 7.875C9.6875 7.875 9.875 7.71094 9.875 7.5V2.71875L8.28125 1.125H5C4.78906 1.125 4.625 1.3125 4.625 1.5V7.5C4.625 7.71094 4.78906 7.875 5 7.875H9.5ZM5 9C4.15625 9 3.5 8.34375 3.5 7.5V1.5C3.5 0.679688 4.15625 0 5 0H8.28125C8.5625 0 8.86719 0.140625 9.07812 0.351562L10.6484 1.92188C10.8594 2.13281 11 2.4375 11 2.71875V7.5C11 8.34375 10.3203 9 9.5 9H5ZM2 3H2.75V4.125H2C1.78906 4.125 1.625 4.3125 1.625 4.5V10.5C1.625 10.7109 1.78906 10.875 2 10.875H6.5C6.6875 10.875 6.875 10.7109 6.875 10.5V9.75H8V10.5C8 11.3438 7.32031 12 6.5 12H2C1.15625 12 0.5 11.3438 0.5 10.5V4.5C0.5 3.67969 1.15625 3 2 3Z"
    fill="currentColor"
  />
</svg>
