<svg viewBox="0 0 13 12" fill="none" xmlns="http://www.w3.org/2000/svg">
  <path
    d="M12.709 1.52693L8.2125 6.02342L12.6715 10.4824C13.0462 10.8197 13.0462 11.3817 12.6715 11.719C12.3343 12.0937 11.7722 12.0937 11.435 11.719L6.93849 7.25995L2.47948 11.719C2.14224 12.0937 1.58018 12.0937 1.24294 11.719C0.868237 11.3817 0.868237 10.8197 1.24294 10.445L5.70196 5.98595L1.24294 1.52693C0.868237 1.1897 0.868237 0.627635 1.24294 0.252927C1.58018 -0.0843091 2.14224 -0.0843091 2.51695 0.252927L6.97597 4.74941L11.435 0.290398C11.7722 -0.0843091 12.3343 -0.0843091 12.709 0.290398C13.0462 0.627635 13.0462 1.1897 12.709 1.52693Z"
    fill="currentColor"
  />
</svg>
