<svg viewBox="0 0 54 48" fill="none" xmlns="http://www.w3.org/2000/svg">
  <path
    d="M11.3446 8.34502H0.908203V-2.09167H11.3446V8.34502Z"
    fill="currentColor"
  />
  <path d="M11.3446 8.34502H0.908203V-2.09167H11.3446V8.34502Z" fill="white" />
  <path
    d="M11.3438 18.7818H21.7801V8.34507L11.3446 8.34502L11.3438 18.7818Z"
    fill="currentColor"
  />
  <path
    d="M11.3438 18.7818H21.7801V8.34507L11.3446 8.34502L11.3438 18.7818Z"
    fill="white"
  />
  <path
    d="M32.2174 29.2194H21.781V18.7827H32.2174V29.2194Z"
    fill="currentColor"
  />
  <path d="M32.2174 29.2194H21.781V18.7827H32.2174V29.2194Z" fill="white" />
  <path
    d="M32.2183 39.6544H42.6546V29.2177H32.2183V39.6544Z"
    fill="currentColor"
  />
  <path d="M32.2183 39.6544H42.6546V29.2177H32.2183V39.6544Z" fill="white" />
  <path
    d="M42.6555 50.092H53.0919V39.6553H42.6555V50.092Z"
    fill="currentColor"
  />
  <path d="M42.6555 50.092H53.0919V39.6553H42.6555V50.092Z" fill="white" />
  <path
    d="M32.2183 18.7818H42.6546V8.34507H32.2183V18.7818Z"
    fill="currentColor"
  />
  <path d="M32.2183 18.7818H42.6546V8.34507H32.2183V18.7818Z" fill="white" />
  <path
    d="M53.0919 8.34502L42.6546 8.34507L42.6555 -2.09167H53.0919V8.34502Z"
    fill="currentColor"
  />
  <path
    d="M53.0919 8.34502L42.6546 8.34507L42.6555 -2.09167H53.0919V8.34502Z"
    fill="white"
  />
  <path
    d="M11.3438 39.6544H21.7801V29.2177H11.3438V39.6544Z"
    fill="currentColor"
  />
  <path d="M11.3438 39.6544H21.7801V29.2177H11.3438V39.6544Z" fill="white" />
  <path
    d="M11.3446 50.092H0.908203V39.6553H11.3446V50.092Z"
    fill="currentColor"
  />
  <path d="M11.3446 50.092H0.908203V39.6553H11.3446V50.092Z" fill="white" />
</svg>
