<svg width="250" height="74" viewBox="0 0 250 74" fill="none" xmlns="http://www.w3.org/2000/svg">
<path d="M28.3106 46.619C26.4394 46.619 26.0394 46.6217 25.623 46.6245C24.256 46.6329 22.8424 46.6467 21.4123 46.6356C16.4043 46.6773 10.251 46.2802 5.49231 44.5308C5.40465 44.4974 5.33352 44.6086 5.39653 44.678C6.24308 45.5832 7.15536 46.4273 8.12518 47.202C12.3716 50.5842 17.7274 52.6028 23.5546 52.6028C26.8751 52.6028 30.0448 51.9475 32.9351 50.7591C34.7597 50.0121 36.4775 49.0513 38.0527 47.9129C34.8172 47.2493 31.6283 46.619 28.3106 46.619Z" fill="white"/>
<path d="M21.0208 42.8897C29.9738 42.8897 35.5792 38.1498 38.0037 32.2214C38.9214 29.9723 39.3926 27.5621 39.4282 25.1685C39.4611 22.7749 39.0612 20.4037 38.2283 18.2462C36.875 14.7252 34.3462 11.7652 30.6779 10.2157C31.7737 11.7652 32.5573 13.4673 33.045 15.2306C33.8394 18.1045 33.8503 21.1395 33.1573 23.9551C32.4586 26.7929 31.0478 29.4225 29.0122 31.4579C26.5357 33.932 23.1576 35.5175 19.0345 35.5314C12.9252 35.5536 6.67884 35.573 0.561286 35.573C0.298283 35.573 0.123039 35.8562 0.243582 36.0922C3.39688 42.3372 14.5033 42.8204 21.0236 42.8897H21.0208Z" fill="white"/>
<path d="M28.3106 46.619C26.4394 46.619 26.0394 46.6217 25.623 46.6245C24.256 46.6329 22.8424 46.6467 21.4123 46.6356C16.4043 46.6773 10.251 46.2802 5.49231 44.5308C5.40465 44.4974 5.33352 44.6086 5.39653 44.678C6.24308 45.5832 7.15536 46.4273 8.12518 47.202C12.3716 50.5842 17.7274 52.6028 23.5546 52.6028C26.8751 52.6028 30.0448 51.9475 32.9351 50.7591C34.7597 50.0121 36.4775 49.0513 38.0527 47.9129C34.8172 47.2493 31.6283 46.619 28.3106 46.619Z" fill="white"/>
<path d="M21.0208 42.8897C29.9738 42.8897 35.5792 38.1498 38.0037 32.2214C38.9214 29.9723 39.3926 27.5621 39.4282 25.1685C39.4611 22.7749 39.0612 20.4037 38.2283 18.2462C36.875 14.7252 34.3462 11.7652 30.6779 10.2157C31.7737 11.7652 32.5573 13.4673 33.045 15.2306C33.8394 18.1045 33.8503 21.1395 33.1573 23.9551C32.4586 26.7929 31.0478 29.4225 29.0122 31.4579C26.5357 33.932 23.1576 35.5175 19.0345 35.5314C12.9252 35.5536 6.67884 35.573 0.561286 35.573C0.298283 35.573 0.123039 35.8562 0.243582 36.0922C3.39688 42.3372 14.5033 42.8204 21.0236 42.8897H21.0208Z" fill="white"/>
<path d="M52.2412 46.4134L46.0086 38.5386L46.1346 38.236C54.0932 21.6976 41.9758 1.87161 23.6423 1.9327C6.45671 2.22148 0.733728 16.6716 0.0104697 18.7181C-0.0306245 18.8348 0.0542661 18.9569 0.177548 18.9569C4.82667 18.9569 14.1222 19.4485 14.9305 13.3673C15.7194 19.4568 25.0368 18.9708 29.6859 18.968C29.8092 18.968 29.8942 18.8431 29.8531 18.7265C28.0697 13.6811 24.7218 9.31886 20.3439 6.30886C31.8256 4.43733 42.5704 13.4867 43.1074 25.002C43.1074 25.0492 43.1074 25.0963 43.1074 25.1435C43.5101 32.6741 39.6115 39.6354 33.6475 43.2952L52.0686 46.7106C52.2303 46.7412 52.3427 46.5495 52.2385 46.4217L52.2412 46.4134Z" fill="white"/>
<path d="M0 72.3169V63.0585H1.91293V66.5724C2.10595 65.9952 2.86303 65.5892 3.83965 65.5892C4.75162 65.5892 5.52254 65.9172 6.1259 66.5854C6.74199 67.2416 7.05059 68.0538 7.05059 69.011C7.05059 69.9682 6.74199 70.7814 6.1259 71.4507C5.52254 72.1069 4.75162 72.4339 3.83965 72.4339C2.86409 72.4339 2.10595 72.0267 1.91293 71.4507V72.3158H0V72.3169ZM4.6615 70.1924C4.98278 69.8642 5.13655 69.4712 5.13655 69.0121C5.13655 68.5529 4.98278 68.1599 4.6615 67.8447C4.34016 67.5166 3.95523 67.3596 3.49291 67.3596C3.03059 67.3596 2.61914 67.5166 2.28619 67.8447C1.96491 68.1599 1.79841 68.5529 1.79841 69.0121C1.79841 69.4712 1.96491 69.8642 2.28619 70.1924C2.6202 70.5075 3.01786 70.6645 3.49291 70.6645C3.96796 70.6645 4.34016 70.5075 4.6615 70.1924Z" fill="white"/>
<path d="M7.71016 72.3169V63.0585H9.62314V72.3169H7.71016Z" fill="white"/>
<path d="M10.6793 65.7072H12.6188V69.4842C12.6188 70.3234 13.0939 70.7035 13.8001 70.7035C14.5063 70.7035 14.9814 70.3234 14.9814 69.4842V65.7072H16.9208V69.6542C16.9208 70.5725 16.625 71.2806 16.0216 71.7657C15.431 72.2508 14.6855 72.4999 13.8001 72.4999C12.9147 72.4999 12.1692 72.2508 11.5658 71.7657C10.9752 71.2806 10.6793 70.5725 10.6793 69.6542V65.7072Z" fill="white"/>
<path d="M20.0309 72.71L17.3725 65.7072H19.2473L20.4031 68.881L22.1369 65.7343L23.8706 68.881L25.0264 65.7072H26.9012L24.2428 72.71L22.1369 68.907L20.0309 72.71Z" fill="white"/>
<path d="M27.4165 72.3169V63.0585H29.3294V66.5074C29.5861 65.9302 30.2799 65.5632 31.1408 65.5632C32.6689 65.5632 33.5425 66.5865 33.5425 68.3039V72.3169H31.6293V68.5399C31.6293 67.7668 31.232 67.2936 30.5255 67.2936C29.8195 67.2936 29.3315 67.8306 29.3315 68.6049V72.3158H27.4187L27.4165 72.3169Z" fill="white"/>
<path d="M39.4775 65.7072H41.3907V72.3169H39.4775V71.4517C39.2844 72.0289 38.5275 72.435 37.551 72.435C36.6386 72.435 35.8679 72.1068 35.2521 71.4517C34.6485 70.7825 34.3398 69.9693 34.3398 69.0121C34.3398 68.0548 34.6485 67.2416 35.2521 66.5865C35.8679 65.9172 36.6386 65.5902 37.551 65.5902C38.5264 65.5902 39.2844 65.9963 39.4775 66.5735V65.7072ZM39.0929 70.1913C39.4265 69.8632 39.5931 69.4701 39.5931 69.011C39.5931 68.5519 39.4265 68.1588 39.0929 67.8436C38.7715 67.5156 38.3736 67.3585 37.8984 67.3585C37.4237 67.3585 37.0513 67.5156 36.7299 67.8436C36.409 68.1588 36.2551 68.5519 36.2551 69.011C36.2551 69.4701 36.409 69.8632 36.7299 70.1913C37.0513 70.5064 37.4364 70.6634 37.8984 70.6634C38.3609 70.6634 38.7725 70.5064 39.0929 70.1913Z" fill="white"/>
<path d="M42.6611 72.3169V63.0585H44.5738V72.3169H42.6611Z" fill="white"/>
<path d="M45.5758 68.9991C45.5758 67.9628 45.8972 67.1366 46.5385 66.5074C47.1941 65.8653 48.0158 65.5502 49.004 65.5502C49.9927 65.5502 50.7634 65.8783 51.367 66.5204C51.9701 67.1625 52.2788 67.9498 52.2788 68.894C52.2788 69.1171 52.2661 69.3401 52.2406 69.5362H47.4891C47.5273 70.3234 48.1823 70.8215 49.197 70.8215C50.1221 70.8215 50.8928 70.6114 51.4959 70.1794V71.8838C50.8801 72.2898 50.0839 72.4869 49.0941 72.4869C48.0412 72.4869 47.1941 72.1718 46.5385 71.5557C45.8962 70.9265 45.5758 70.1003 45.5758 69.064V68.998V68.9991ZM50.3528 68.2649C50.3528 67.6747 49.7625 67.1766 49.004 67.1766C48.6067 67.1766 48.2598 67.2816 47.9638 67.4917C47.6678 67.7018 47.5145 67.9638 47.5018 68.266H50.3528V68.2649Z" fill="white"/>
<path fill-rule="evenodd" clip-rule="evenodd" d="M124.211 35.589C124.786 36.1443 125.697 36.1443 126.271 35.589L147.23 15.332L126.974 36.2911C126.418 36.8656 126.418 37.7769 126.974 38.3515L147.23 59.3105L126.271 39.0536C125.697 38.4983 124.786 38.4983 124.211 39.0536L103.252 59.3105L123.509 38.3515C124.064 37.7769 124.064 36.8656 123.509 36.2911L103.252 15.332L124.211 35.589Z" fill="url(#paint0_radial_2010_5993)"/>
<path fill-rule="evenodd" clip-rule="evenodd" d="M124.211 35.589C124.786 36.1443 125.697 36.1443 126.271 35.589L147.23 15.332L126.974 36.2911C126.418 36.8656 126.418 37.7769 126.974 38.3515L147.23 59.3105L126.271 39.0536C125.697 38.4983 124.786 38.4983 124.211 39.0536L103.252 59.3105L123.509 38.3515C124.064 37.7769 124.064 36.8656 123.509 36.2911L103.252 15.332L124.211 35.589Z" fill="white" fill-opacity="0.5"/>
<path d="M208.563 11.3266H198.204V0.967407H208.563V11.3266Z" fill="#F7CD7B"/>
<path d="M208.562 21.6859H218.921V11.3267L208.563 11.3266L208.562 21.6859Z" fill="#F7CD7B"/>
<path d="M229.281 32.046H218.922V21.6867H229.281V32.046Z" fill="#F7CD7B"/>
<path d="M229.281 42.4035H239.64V32.0443H229.281V42.4035Z" fill="#F7CD7B"/>
<path d="M239.641 52.7636H250V42.4044H239.641V52.7636Z" fill="#F7CD7B"/>
<path d="M229.281 21.6859H239.64V11.3267H229.281V21.6859Z" fill="#F7CD7B"/>
<path d="M250 11.3266L239.64 11.3267L239.641 0.967407H250V11.3266Z" fill="#F7CD7B"/>
<path d="M208.562 42.4035H218.921V32.0443H208.562V42.4035Z" fill="#F7CD7B"/>
<path d="M208.563 52.7636H198.204V42.4044H208.563V52.7636Z" fill="#F7CD7B"/>
<rect x="229.287" y="11.3281" width="10.3524" height="10.3524" fill="white"/>
<path d="M208.921 69.8852C208.562 72.2789 206.878 73.6752 204.369 73.6752C201.705 73.6752 199.973 71.9738 199.973 69.3689C199.973 66.6115 201.741 64.828 204.489 64.828C206.711 64.828 208.312 66.0718 208.766 68.1369L207.093 68.5476C206.747 67.1513 205.815 66.3534 204.513 66.3534C202.852 66.3534 201.825 67.4681 201.825 69.2985C201.825 71.1055 202.792 72.1498 204.465 72.1498C205.958 72.1498 206.986 71.2229 207.201 69.674L208.921 69.8852Z" fill="#F7CD7B"/>
<path d="M208.921 69.8852C208.562 72.2789 206.878 73.6752 204.369 73.6752C201.705 73.6752 199.973 71.9738 199.973 69.3689C199.973 66.6115 201.741 64.828 204.489 64.828C206.711 64.828 208.312 66.0718 208.766 68.1369L207.093 68.5476C206.747 67.1513 205.815 66.3534 204.513 66.3534C202.852 66.3534 201.825 67.4681 201.825 69.2985C201.825 71.1055 202.792 72.1498 204.465 72.1498C205.958 72.1498 206.986 71.2229 207.201 69.674L208.921 69.8852Z" fill="white"/>
<path d="M211.99 73.5344V66.4825H208.776V64.9688H216.995V66.4825H213.782V73.5344H211.99Z" fill="#F7CD7B"/>
<path d="M211.99 73.5344V66.4825H208.776V64.9688H216.995V66.4825H213.782V73.5344H211.99Z" fill="white"/>
<path d="M215.931 71.5983H217.902V73.5344H215.931V71.5983Z" fill="#F7CD7B"/>
<path d="M215.931 71.5983H217.902V73.5344H215.931V71.5983Z" fill="white"/>
<path d="M227.107 69.8852C226.748 72.2789 225.064 73.6752 222.555 73.6752C219.891 73.6752 218.159 71.9738 218.159 69.3689C218.159 66.6115 219.927 64.828 222.674 64.828C224.896 64.828 226.497 66.0718 226.951 68.1369L225.279 68.5476C224.932 67.1513 224.001 66.3534 222.698 66.3534C221.038 66.3534 220.01 67.4681 220.01 69.2985C220.01 71.1055 220.978 72.1498 222.651 72.1498C224.144 72.1498 225.171 71.2229 225.386 69.674L227.107 69.8852Z" fill="#F7CD7B"/>
<path d="M227.107 69.8852C226.748 72.2789 225.064 73.6752 222.555 73.6752C219.891 73.6752 218.159 71.9738 218.159 69.3689C218.159 66.6115 219.927 64.828 222.674 64.828C224.896 64.828 226.497 66.0718 226.951 68.1369L225.279 68.5476C224.932 67.1513 224.001 66.3534 222.698 66.3534C221.038 66.3534 220.01 67.4681 220.01 69.2985C220.01 71.1055 220.978 72.1498 222.651 72.1498C224.144 72.1498 225.171 71.2229 225.386 69.674L227.107 69.8852Z" fill="white"/>
<path d="M232.376 73.6752C229.592 73.6752 227.717 71.8917 227.717 69.2516C227.717 66.6115 229.592 64.828 232.376 64.828C235.171 64.828 237.047 66.6115 237.047 69.2516C237.047 71.8917 235.171 73.6752 232.376 73.6752ZM229.568 69.2516C229.568 71.0116 230.667 72.1498 232.376 72.1498C234.096 72.1498 235.195 71.0116 235.195 69.2516C235.195 67.4915 234.096 66.3534 232.376 66.3534C230.667 66.3534 229.568 67.4915 229.568 69.2516Z" fill="#F7CD7B"/>
<path d="M232.376 73.6752C229.592 73.6752 227.717 71.8917 227.717 69.2516C227.717 66.6115 229.592 64.828 232.376 64.828C235.171 64.828 237.047 66.6115 237.047 69.2516C237.047 71.8917 235.171 73.6752 232.376 73.6752ZM229.568 69.2516C229.568 71.0116 230.667 72.1498 232.376 72.1498C234.096 72.1498 235.195 71.0116 235.195 69.2516C235.195 67.4915 234.096 66.3534 232.376 66.3534C230.667 66.3534 229.568 67.4915 229.568 69.2516Z" fill="white"/>
<path d="M248.231 64.9688V73.5344H246.439V66.8697H246.391L244.025 73.5344H242.341L239.928 66.8697H239.868V73.5344H238.16V64.9688H240.991L243.225 71.4223H243.261L245.471 64.9688H248.231Z" fill="#F7CD7B"/>
<path d="M248.231 64.9688V73.5344H246.439V66.8697H246.391L244.025 73.5344H242.341L239.928 66.8697H239.868V73.5344H238.16V64.9688H240.991L243.225 71.4223H243.261L245.471 64.9688H248.231Z" fill="white"/>
<path d="M208.921 69.8852C208.562 72.2789 206.878 73.6752 204.369 73.6752C201.705 73.6752 199.973 71.9738 199.973 69.3689C199.973 66.6115 201.741 64.828 204.489 64.828C206.711 64.828 208.312 66.0718 208.766 68.1369L207.093 68.5476C206.747 67.1513 205.815 66.3534 204.513 66.3534C202.852 66.3534 201.825 67.4681 201.825 69.2985C201.825 71.1055 202.792 72.1498 204.465 72.1498C205.958 72.1498 206.986 71.2229 207.201 69.674L208.921 69.8852Z" stroke="black" stroke-width="0.113687"/>
<path d="M211.99 73.5344V66.4825H208.776V64.9688H216.995V66.4825H213.782V73.5344H211.99Z" stroke="black" stroke-width="0.113687"/>
<path d="M215.931 71.5983H217.902V73.5344H215.931V71.5983Z" stroke="black" stroke-width="0.113687"/>
<path d="M227.107 69.8852C226.748 72.2789 225.064 73.6752 222.555 73.6752C219.891 73.6752 218.159 71.9738 218.159 69.3689C218.159 66.6115 219.927 64.828 222.674 64.828C224.896 64.828 226.497 66.0718 226.951 68.1369L225.279 68.5476C224.932 67.1513 224.001 66.3534 222.698 66.3534C221.038 66.3534 220.01 67.4681 220.01 69.2985C220.01 71.1055 220.978 72.1498 222.651 72.1498C224.144 72.1498 225.171 71.2229 225.386 69.674L227.107 69.8852Z" stroke="black" stroke-width="0.113687"/>
<path d="M232.376 73.6752C229.592 73.6752 227.717 71.8917 227.717 69.2516C227.717 66.6115 229.592 64.828 232.376 64.828C235.171 64.828 237.047 66.6115 237.047 69.2516C237.047 71.8917 235.171 73.6752 232.376 73.6752ZM229.568 69.2516C229.568 71.0116 230.667 72.1498 232.376 72.1498C234.096 72.1498 235.195 71.0116 235.195 69.2516C235.195 67.4915 234.096 66.3534 232.376 66.3534C230.667 66.3534 229.568 67.4915 229.568 69.2516Z" stroke="black" stroke-width="0.113687"/>
<path d="M248.231 64.9688V73.5344H246.439V66.8697H246.391L244.025 73.5344H242.341L239.928 66.8697H239.868V73.5344H238.16V64.9688H240.991L243.225 71.4223H243.261L245.471 64.9688H248.231Z" stroke="black" stroke-width="0.113687"/>
<defs>
<radialGradient id="paint0_radial_2010_5993" cx="0" cy="0" r="1" gradientUnits="userSpaceOnUse" gradientTransform="translate(125.241 37.3213) rotate(90) scale(21.9893)">
<stop stop-color="white"/>
<stop offset="1" stop-color="white" stop-opacity="0.1"/>
</radialGradient>
</defs>
</svg>
