<svg viewBox="0 0 20 20" fill="none" xmlns="http://www.w3.org/2000/svg">
  <path
    d="M16.4752 6.025L16.4835 6.01667L13.3835 2.91667L12.5002 3.8L14.2585 5.55833C13.3835 5.89167 12.7918 6.78333 12.9418 7.81667C13.0752 8.73333 13.8585 9.475 14.7752 9.575C15.1668 9.61667 15.5085 9.55 15.8335 9.40833V16.25H14.1668V10H11.6668V2.5H3.3335V17.5H11.6668V11.25H12.9168V17.4917H17.0835V7.5C17.0835 6.925 16.8502 6.4 16.4752 6.025ZM10.0002 8.33333H5.00016V4.16667H10.0002V8.33333ZM15.0002 8.33333C14.5418 8.33333 14.1668 7.95833 14.1668 7.5C14.1668 7.04167 14.5418 6.66667 15.0002 6.66667C15.4585 6.66667 15.8335 7.04167 15.8335 7.5C15.8335 7.95833 15.4585 8.33333 15.0002 8.33333Z"
    fill="currentColor"
  />
</svg>
