<svg
  width="14"
  height="15"
  viewBox="0 0 14 15"
  fill="none"
  xmlns="http://www.w3.org/2000/svg"
>
  <path
    d="M13.5 5.63326L13.5 1.29993M13.5 1.29993H9.16667M13.5 1.29993L7.72222 7.0777M5.55556 2.74437H3.96667C2.75322 2.74437 2.1465 2.74437 1.68302 2.98052C1.27534 3.18825 0.943878 3.51971 0.736153 3.92739C0.5 4.39087 0.5 4.99759 0.5 6.21104V10.8333C0.5 12.0467 0.5 12.6534 0.736153 13.1169C0.943878 13.5246 1.27534 13.856 1.68302 14.0638C2.1465 14.2999 2.75322 14.2999 3.96667 14.2999H8.58889C9.80234 14.2999 10.4091 14.2999 10.8725 14.0638C11.2802 13.856 11.6117 13.5246 11.8194 13.1169C12.0556 12.6534 12.0556 12.0467 12.0556 10.8333V9.24437"
    stroke="currentColor"
    stroke-linecap="round"
    stroke-linejoin="round"
  />
</svg>
