<svg
  width="123"
  height="159"
  viewBox="0 0 123 159"
  fill="none"
  xmlns="http://www.w3.org/2000/svg"
>
  <g filter="url(#filter0_d_1786_3335)">
    <path
      d="M24.8545 24.9979H0.759033V0.901642H24.8545V24.9979Z"
      fill="#FFCC55"
    />
    <path
      d="M24.8527 49.0943H48.9482V24.998L24.8545 24.9979L24.8527 49.0943Z"
      fill="#FFCC55"
    />
    <path
      d="M73.0458 73.1927H48.9503V49.0964H73.0458V73.1927Z"
      fill="#FFCC55"
    />
    <path
      d="M73.0478 97.2852H97.1434V73.1889H73.0478V97.2852Z"
      fill="#FFCC55"
    />
    <path
      d="M97.1454 121.384H121.241V97.2873H97.1454V121.384Z"
      fill="#FFCC55"
    />
    <path d="M73.0478 49.0943H97.1434V24.998H73.0478V49.0943Z" fill="#FFCC55" />
    <path
      d="M121.241 24.9979L97.1434 24.998L97.1454 0.901642H121.241V24.9979Z"
      fill="#FFCC55"
    />
    <path
      d="M24.8527 97.2852H48.9482V73.1889H24.8527V97.2852Z"
      fill="#FFCC55"
    />
    <path
      d="M24.8545 121.384H0.759033V97.2873H24.8545V121.384Z"
      fill="#FFCC55"
    />
  </g>
  <rect x="72.8804" y="25.0824" width="24.1988" height="24.0669" fill="white" />
  <path
    d="M26.4478 150.049C25.6438 155.516 21.865 158.705 16.2369 158.705C10.2605 158.705 6.37443 154.819 6.37443 148.869C6.37443 142.571 10.3409 138.498 16.5049 138.498C21.4898 138.498 25.081 141.339 26.0994 146.055L22.3474 146.993C21.5702 143.804 19.4797 141.982 16.5585 141.982C12.8333 141.982 10.5285 144.528 10.5285 148.709C10.5285 152.836 12.6993 155.221 16.4513 155.221C19.8013 155.221 22.1062 153.104 22.5886 149.566L26.4478 150.049ZM33.3327 158.384V142.277H26.1235V138.819H44.562V142.277H37.3528V158.384H33.3327ZM42.1745 153.961H46.5966V158.384H42.1745V153.961ZM67.2459 150.049C66.4419 155.516 62.6631 158.705 57.035 158.705C51.0586 158.705 47.1725 154.819 47.1725 148.869C47.1725 142.571 51.139 138.498 57.303 138.498C62.2879 138.498 65.8791 141.339 66.8975 146.055L63.1455 146.993C62.3683 143.804 60.2779 141.982 57.3566 141.982C53.6314 141.982 51.3266 144.528 51.3266 148.709C51.3266 152.836 53.4974 155.221 57.2494 155.221C60.5995 155.221 62.9043 153.104 63.3867 149.566L67.2459 150.049ZM79.0669 158.705C72.8225 158.705 68.6148 154.631 68.6148 148.601C68.6148 142.571 72.8225 138.498 79.0669 138.498C85.3382 138.498 89.5458 142.571 89.5458 148.601C89.5458 154.631 85.3382 158.705 79.0669 158.705ZM72.7689 148.601C72.7689 152.621 75.2345 155.221 79.0669 155.221C82.9262 155.221 85.3918 152.621 85.3918 148.601C85.3918 144.581 82.9262 141.982 79.0669 141.982C75.2345 141.982 72.7689 144.581 72.7689 148.601ZM114.636 138.819V158.384H110.616V143.161H110.509L105.202 158.384H101.423L96.0097 143.161H95.8757V158.384H92.0432V138.819H98.3949L103.407 153.559H103.487L108.445 138.819H114.636Z"
    fill="#F7CD7B"
  />
  <path
    d="M26.4478 150.049C25.6438 155.516 21.865 158.705 16.2369 158.705C10.2605 158.705 6.37443 154.819 6.37443 148.869C6.37443 142.571 10.3409 138.498 16.5049 138.498C21.4898 138.498 25.081 141.339 26.0994 146.055L22.3474 146.993C21.5702 143.804 19.4797 141.982 16.5585 141.982C12.8333 141.982 10.5285 144.528 10.5285 148.709C10.5285 152.836 12.6993 155.221 16.4513 155.221C19.8013 155.221 22.1062 153.104 22.5886 149.566L26.4478 150.049ZM33.3327 158.384V142.277H26.1235V138.819H44.562V142.277H37.3528V158.384H33.3327ZM42.1745 153.961H46.5966V158.384H42.1745V153.961ZM67.2459 150.049C66.4419 155.516 62.6631 158.705 57.035 158.705C51.0586 158.705 47.1725 154.819 47.1725 148.869C47.1725 142.571 51.139 138.498 57.303 138.498C62.2879 138.498 65.8791 141.339 66.8975 146.055L63.1455 146.993C62.3683 143.804 60.2779 141.982 57.3566 141.982C53.6314 141.982 51.3266 144.528 51.3266 148.709C51.3266 152.836 53.4974 155.221 57.2494 155.221C60.5995 155.221 62.9043 153.104 63.3867 149.566L67.2459 150.049ZM79.0669 158.705C72.8225 158.705 68.6148 154.631 68.6148 148.601C68.6148 142.571 72.8225 138.498 79.0669 138.498C85.3382 138.498 89.5458 142.571 89.5458 148.601C89.5458 154.631 85.3382 158.705 79.0669 158.705ZM72.7689 148.601C72.7689 152.621 75.2345 155.221 79.0669 155.221C82.9262 155.221 85.3918 152.621 85.3918 148.601C85.3918 144.581 82.9262 141.982 79.0669 141.982C75.2345 141.982 72.7689 144.581 72.7689 148.601ZM114.636 138.819V158.384H110.616V143.161H110.509L105.202 158.384H101.423L96.0097 143.161H95.8757V158.384H92.0432V138.819H98.3949L103.407 153.559H103.487L108.445 138.819H114.636Z"
    fill="white"
  />
  <path
    d="M26.4478 150.049L26.5177 150.059L26.5282 149.987L26.4566 149.979L26.4478 150.049ZM26.0994 146.055L26.1165 146.124L26.1829 146.107L26.1685 146.04L26.0994 146.055ZM22.3474 146.993L22.2787 147.01L22.2955 147.079L22.3645 147.062L22.3474 146.993ZM22.5886 149.566L22.5973 149.496L22.528 149.487L22.5185 149.557L22.5886 149.566ZM26.3779 150.038C25.978 152.758 24.8393 154.905 23.1057 156.373C21.372 157.841 19.0374 158.634 16.2369 158.634V158.776C19.0644 158.776 21.4333 157.974 23.197 156.481C24.9609 154.987 26.1136 152.807 26.5177 150.059L26.3779 150.038ZM16.2369 158.634C13.2643 158.634 10.8177 157.668 9.11443 155.968C7.41118 154.268 6.44511 151.829 6.44511 148.869H6.30376C6.30376 151.86 7.2807 154.338 9.01458 156.068C10.7484 157.799 13.2331 158.776 16.2369 158.776V158.634ZM6.44511 148.869C6.44511 145.735 7.43174 143.161 9.17874 141.371C10.9256 139.581 13.4389 138.568 16.5049 138.568V138.427C13.4069 138.427 10.855 139.451 9.07758 141.272C7.30034 143.094 6.30376 145.705 6.30376 148.869H6.44511ZM16.5049 138.568C18.9837 138.568 21.1117 139.275 22.7458 140.563C24.3798 141.852 25.5242 143.726 26.0303 146.07L26.1685 146.04C25.6562 143.668 24.4958 141.763 22.8333 140.452C21.171 139.141 19.011 138.427 16.5049 138.427V138.568ZM26.0823 145.987L22.3302 146.925L22.3645 147.062L26.1165 146.124L26.0823 145.987ZM22.416 146.977C22.0248 145.371 21.3015 144.104 20.3033 143.238C19.3044 142.372 18.0346 141.911 16.5585 141.911V142.052C18.0036 142.052 19.2397 142.503 20.2106 143.345C21.1822 144.188 21.8928 145.427 22.2787 147.01L22.416 146.977ZM16.5585 141.911C14.679 141.911 13.1512 142.554 12.094 143.73C11.0376 144.905 10.4578 146.606 10.4578 148.709H10.5991C10.5991 146.631 11.1718 144.968 12.1991 143.825C13.2256 142.683 14.7128 142.052 16.5585 142.052V141.911ZM10.4578 148.709C10.4578 150.784 11.0036 152.431 12.0306 153.56C13.0584 154.69 14.5598 155.292 16.4513 155.292V155.15C14.5908 155.15 13.1308 154.56 12.1352 153.465C11.1387 152.37 10.5991 150.76 10.5991 148.709H10.4578ZM16.4513 155.292C18.1418 155.292 19.5733 154.757 20.6432 153.772C21.7127 152.788 22.4156 151.358 22.6586 149.576L22.5185 149.557C22.2791 151.312 21.5884 152.71 20.5474 153.668C19.5068 154.626 18.1109 155.15 16.4513 155.15V155.292ZM22.5798 149.636L26.439 150.119L26.4566 149.979L22.5973 149.496L22.5798 149.636ZM33.3327 158.384H33.2621V158.454H33.3327V158.384ZM33.3327 142.277H33.4034V142.206H33.3327V142.277ZM26.1235 142.277H26.0528V142.347H26.1235V142.277ZM26.1235 138.819V138.749H26.0528V138.819H26.1235ZM44.562 138.819H44.6327V138.749H44.562V138.819ZM44.562 142.277V142.347H44.6327V142.277H44.562ZM37.3528 142.277V142.206H37.2821V142.277H37.3528ZM37.3528 158.384V158.454H37.4235V158.384H37.3528ZM33.4034 158.384V142.277H33.2621V158.384H33.4034ZM33.3327 142.206H26.1235V142.347H33.3327V142.206ZM26.1942 142.277V138.819H26.0528V142.277H26.1942ZM26.1235 138.89H44.562V138.749H26.1235V138.89ZM44.4914 138.819V142.277H44.6327V138.819H44.4914ZM44.562 142.206H37.3528V142.347H44.562V142.206ZM37.2821 142.277V158.384H37.4235V142.277H37.2821ZM37.3528 158.313H33.3327V158.454H37.3528V158.313ZM42.1745 153.961V153.891H42.1038V153.961H42.1745ZM46.5966 153.961H46.6672V153.891H46.5966V153.961ZM46.5966 158.384V158.454H46.6672V158.384H46.5966ZM42.1745 158.384H42.1038V158.454H42.1745V158.384ZM42.1745 154.032H46.5966V153.891H42.1745V154.032ZM46.5259 153.961V158.384H46.6672V153.961H46.5259ZM46.5966 158.313H42.1745V158.454H46.5966V158.313ZM42.2452 158.384V153.961H42.1038V158.384H42.2452ZM67.2459 150.049L67.3158 150.059L67.3264 149.987L67.2547 149.979L67.2459 150.049ZM66.8975 146.055L66.9147 146.124L66.981 146.107L66.9666 146.04L66.8975 146.055ZM63.1455 146.993L63.0768 147.01L63.0937 147.079L63.1626 147.062L63.1455 146.993ZM63.3867 149.566L63.3955 149.496L63.3261 149.487L63.3167 149.557L63.3867 149.566ZM67.176 150.038C66.7761 152.758 65.6374 154.905 63.9038 156.373C62.1701 157.841 59.8356 158.634 57.035 158.634V158.776C59.8626 158.776 62.2314 157.974 63.9952 156.481C65.759 154.987 66.9118 152.807 67.3158 150.059L67.176 150.038ZM57.035 158.634C54.0624 158.634 51.6158 157.668 49.9125 155.968C48.2093 154.268 47.2432 151.829 47.2432 148.869H47.1019C47.1019 151.86 48.0788 154.338 49.8127 156.068C51.5466 157.799 54.0312 158.776 57.035 158.776V158.634ZM47.2432 148.869C47.2432 145.735 48.2299 143.161 49.9769 141.371C51.7237 139.581 54.237 138.568 57.303 138.568V138.427C54.205 138.427 51.6531 139.451 49.8757 141.272C48.0985 143.094 47.1019 145.705 47.1019 148.869H47.2432ZM57.303 138.568C59.7818 138.568 61.9098 139.275 63.5439 140.563C65.1779 141.852 66.3223 143.726 66.8284 146.07L66.9666 146.04C66.4543 143.668 65.2939 141.763 63.6315 140.452C61.9691 139.141 59.8091 138.427 57.303 138.427V138.568ZM66.8804 145.987L63.1283 146.925L63.1626 147.062L66.9147 146.124L66.8804 145.987ZM63.2142 146.977C62.8229 145.371 62.0996 144.104 61.1014 143.238C60.1025 142.372 58.8328 141.911 57.3566 141.911V142.052C58.8017 142.052 60.0378 142.503 61.0088 143.345C61.9803 144.188 62.6909 145.427 63.0768 147.01L63.2142 146.977ZM57.3566 141.911C55.4771 141.911 53.9493 142.554 52.8921 143.73C51.8357 144.905 51.2559 146.606 51.2559 148.709H51.3973C51.3973 146.631 51.9699 144.968 52.9972 143.825C54.0237 142.683 55.5109 142.052 57.3566 142.052V141.911ZM51.2559 148.709C51.2559 150.784 51.8018 152.431 52.8287 153.56C53.8565 154.69 55.3579 155.292 57.2494 155.292V155.15C55.3889 155.15 53.9289 154.56 52.9333 153.465C51.9368 152.37 51.3973 150.76 51.3973 148.709H51.2559ZM57.2494 155.292C58.9399 155.292 60.3714 154.757 61.4413 153.772C62.5108 152.788 63.2137 151.358 63.4567 149.576L63.3167 149.557C63.0772 151.312 62.3865 152.71 61.3456 153.668C60.3049 154.626 58.909 155.15 57.2494 155.15V155.292ZM63.3779 149.636L67.2372 150.119L67.2547 149.979L63.3955 149.496L63.3779 149.636ZM79.0669 158.634C75.9603 158.634 73.3658 157.621 71.5483 155.864C69.7311 154.106 68.6855 151.599 68.6855 148.601H68.5442C68.5442 151.633 69.6024 154.178 71.4501 155.965C73.2976 157.752 75.9291 158.776 79.0669 158.776V158.634ZM68.6855 148.601C68.6855 145.603 69.7311 143.097 71.5483 141.339C73.3658 139.582 75.9603 138.568 79.0669 138.568V138.427C75.9291 138.427 73.2976 139.451 71.4501 141.238C69.6024 143.024 68.5442 145.569 68.5442 148.601H68.6855ZM79.0669 138.568C82.187 138.568 84.7883 139.582 86.609 141.339C88.4295 143.097 89.4751 145.603 89.4751 148.601H89.6165C89.6165 145.569 88.5583 143.024 86.7072 141.237C84.8563 139.451 82.218 138.427 79.0669 138.427V138.568ZM89.4751 148.601C89.4751 151.599 88.4295 154.106 86.609 155.864C84.7883 157.621 82.187 158.634 79.0669 158.634V158.776C82.218 158.776 84.8563 157.752 86.7072 155.965C88.5583 154.178 89.6165 151.633 89.6165 148.601H89.4751ZM72.6982 148.601C72.6982 150.626 73.3192 152.299 74.4295 153.467C75.5401 154.636 77.1341 155.292 79.0669 155.292V155.15C77.1673 155.15 75.6123 154.507 74.532 153.37C73.4513 152.233 72.8395 150.597 72.8395 148.601H72.6982ZM79.0669 155.292C81.013 155.292 82.6137 154.636 83.7277 153.468C84.8414 152.3 85.4624 150.626 85.4624 148.601H85.3211C85.3211 150.597 84.7093 152.233 83.6254 153.37C82.5418 154.506 80.9801 155.15 79.0669 155.15V155.292ZM85.4624 148.601C85.4624 146.577 84.8414 144.903 83.7277 143.735C82.6137 142.567 81.013 141.911 79.0669 141.911V142.052C80.9801 142.052 82.5418 142.696 83.6254 143.833C84.7093 144.97 85.3211 146.606 85.3211 148.601H85.4624ZM79.0669 141.911C77.1341 141.911 75.5401 142.567 74.4295 143.735C73.3192 144.903 72.6982 146.577 72.6982 148.601H72.8395C72.8395 146.606 73.4513 144.97 74.532 143.833C75.6123 142.696 77.1673 142.052 79.0669 142.052V141.911ZM114.636 138.819H114.707V138.749H114.636V138.819ZM114.636 158.384V158.454H114.707V158.384H114.636ZM110.616 158.384H110.545V158.454H110.616V158.384ZM110.616 143.161H110.686V143.09H110.616V143.161ZM110.509 143.161V143.09H110.458L110.442 143.138L110.509 143.161ZM105.202 158.384V158.454H105.252L105.269 158.407L105.202 158.384ZM101.423 158.384L101.357 158.407L101.373 158.454H101.423V158.384ZM96.0097 143.161L96.0763 143.137L96.0596 143.09H96.0097V143.161ZM95.8757 143.161V143.09H95.805V143.161H95.8757ZM95.8757 158.384V158.454H95.9464V158.384H95.8757ZM92.0433 158.384H91.9726V158.454H92.0433V158.384ZM92.0433 138.819V138.749H91.9726V138.819H92.0433ZM98.3949 138.819L98.4618 138.797L98.4455 138.749H98.3949V138.819ZM103.407 153.559L103.34 153.582L103.356 153.63H103.407V153.559ZM103.487 153.559V153.63H103.538L103.554 153.582L103.487 153.559ZM108.445 138.819V138.749H108.394L108.378 138.797L108.445 138.819ZM114.565 138.819V158.384H114.707V138.819H114.565ZM114.636 158.313H110.616V158.454H114.636V158.313ZM110.686 158.384V143.161H110.545V158.384H110.686ZM110.616 143.09H110.509V143.232H110.616V143.09ZM110.442 143.138L105.135 158.36L105.269 158.407L110.575 143.184L110.442 143.138ZM105.202 158.313H101.423V158.454H105.202V158.313ZM101.49 158.36L96.0763 143.137L95.9431 143.185L101.357 158.407L101.49 158.36ZM96.0097 143.09H95.8757V143.232H96.0097V143.09ZM95.805 143.161V158.384H95.9464V143.161H95.805ZM95.8757 158.313H92.0433V158.454H95.8757V158.313ZM92.1139 158.384V138.819H91.9726V158.384H92.1139ZM92.0433 138.89H98.3949V138.749H92.0433V138.89ZM98.328 138.842L103.34 153.582L103.473 153.537L98.4618 138.797L98.328 138.842ZM103.407 153.63H103.487V153.489H103.407V153.63ZM103.554 153.582L108.512 138.842L108.378 138.797L103.42 153.537L103.554 153.582ZM108.445 138.89H114.636V138.749H108.445V138.89Z"
    fill="black"
  />
  <defs>
    <filter
      id="filter0_d_1786_3335"
      x="0.759033"
      y="0.901642"
      width="121.672"
      height="121.672"
      filterUnits="userSpaceOnUse"
      color-interpolation-filters="sRGB"
    >
      <feFlood flood-opacity="0" result="BackgroundImageFix" />
      <feColorMatrix
        in="SourceAlpha"
        type="matrix"
        values="0 0 0 0 0 0 0 0 0 0 0 0 0 0 0 0 0 0 127 0"
        result="hardAlpha"
      />
      <feOffset dx="1.18975" dy="1.18975" />
      <feComposite in2="hardAlpha" operator="out" />
      <feColorMatrix
        type="matrix"
        values="0 0 0 0 0 0 0 0 0 0 0 0 0 0 0 0 0 0 1 0"
      />
      <feBlend
        mode="normal"
        in2="BackgroundImageFix"
        result="effect1_dropShadow_1786_3335"
      />
      <feBlend
        mode="normal"
        in="SourceGraphic"
        in2="effect1_dropShadow_1786_3335"
        result="shape"
      />
    </filter>
  </defs>
</svg>
