<svg viewBox="0 0 22 23" fill="none" xmlns="http://www.w3.org/2000/svg">
  <path
    d="M20.3257 1.69568L12.2737 7.67585L13.7625 4.14772L20.3257 1.69568Z"
    fill="#E2761B"
  />
  <path
    fill-rule="evenodd"
    clip-rule="evenodd"
    d="M20.5356 1.58139C20.5926 1.68603 20.5638 1.8166 20.4682 1.88762L12.4161 7.8678C12.3296 7.93209 12.2107 7.93049 12.1259 7.8639C12.0411 7.79731 12.0113 7.6822 12.0533 7.58285L13.5421 4.05472C13.5677 3.99411 13.6171 3.94671 13.6787 3.92368L20.2419 1.47164C20.3535 1.42995 20.4787 1.47675 20.5356 1.58139ZM13.9426 4.33563L12.8347 6.96123L18.8269 2.51084L13.9426 4.33563Z"
    fill="#E2761B"
  />
  <path
    d="M1.73708 1.69568L9.72403 7.73277L8.30838 4.14772L1.7366 1.69568H1.73708ZM17.4283 15.5581L15.2838 18.8437L19.8722 20.1059L21.1913 15.6308L17.4283 15.5581ZM0.887207 15.6308L2.1986 20.1059L6.78655 18.8432L4.64251 15.5576L0.887207 15.6308Z"
    fill="#E4761B"
  />
  <path
    fill-rule="evenodd"
    clip-rule="evenodd"
    d="M1.50126 1.6532C1.52181 1.53936 1.6209 1.45654 1.73659 1.45654H1.73706C1.76881 1.45654 1.80003 1.46286 1.82898 1.47491L8.39196 3.92367C8.45545 3.94736 8.5059 3.99687 8.53079 4.05989L9.94644 7.64493C9.9858 7.74462 9.95403 7.85831 9.86871 7.92316C9.78338 7.988 9.66532 7.98815 9.57983 7.92353L1.6024 1.89364C1.52555 1.84158 1.48416 1.74795 1.50126 1.6532ZM3.18753 2.49228L9.18881 7.02845L8.12505 4.33455L3.18753 2.49228ZM4.63784 15.3185C4.72027 15.3169 4.79771 15.3579 4.84276 15.4269L6.98681 18.7126C7.02853 18.7765 7.03722 18.8565 7.01017 18.9279C6.98313 18.9993 6.92361 19.0535 6.84999 19.0738L2.26204 20.3364C2.13619 20.371 2.00581 20.2984 1.96911 20.1731L0.657715 15.698L0.887195 15.6308L0.882536 15.3917L4.63784 15.3185ZM1.20466 15.8638L2.36192 19.8129L6.40727 18.6996L4.51466 15.7993L1.20466 15.8638ZM17.4329 15.319L21.1959 15.3917C21.2705 15.3931 21.3401 15.4293 21.3842 15.4894C21.4282 15.5496 21.4417 15.6268 21.4207 15.6984L20.1016 20.1735C20.0648 20.2985 19.9345 20.371 19.8088 20.3364L15.2204 19.0743C15.1468 19.054 15.0872 18.9998 15.0602 18.9284C15.0331 18.857 15.0418 18.777 15.0836 18.713L17.2281 15.4274L17.4283 15.5581L17.4329 15.319ZM17.5562 15.7997L15.6631 18.7001L19.7093 19.813L20.8733 15.8638L17.5562 15.7997Z"
    fill="#E4761B"
  />
  <path
    d="M6.5279 10.0061L5.24951 11.9402L9.80542 12.1425L9.64329 7.2465L6.5279 10.0061ZM15.5345 10.0061L12.3789 7.19006L12.2737 12.1425L16.8215 11.9402L15.535 10.0061H15.5345ZM6.78664 18.8434L9.52229 17.5081L7.15921 15.6629L6.78664 18.8434ZM12.5401 17.5081L15.2839 18.8429L14.9032 15.6625L12.5406 17.5081H12.5401Z"
    fill="#E4761B"
  />
  <path
    fill-rule="evenodd"
    clip-rule="evenodd"
    d="M12.2834 6.9708C12.369 6.93355 12.4684 6.9495 12.538 7.01164L15.6846 9.81963C15.7035 9.8348 15.7202 9.85293 15.734 9.87362L17.0205 11.8077C17.0683 11.8795 17.0737 11.9715 17.0346 12.0484C16.9956 12.1253 16.9182 12.1752 16.832 12.179L12.2842 12.3814C12.2181 12.3843 12.1538 12.3597 12.1065 12.3135C12.0592 12.2673 12.0331 12.2035 12.0345 12.1374L12.1397 7.18498C12.1417 7.09167 12.1978 7.00804 12.2834 6.9708ZM9.73769 7.02684C9.82281 7.06347 9.8791 7.14597 9.88216 7.23858L10.0443 12.1345C10.0465 12.2011 10.0208 12.2656 9.97343 12.3125C9.92605 12.3594 9.86126 12.3843 9.79469 12.3814L5.23878 12.179C5.15274 12.1752 5.07541 12.1254 5.03631 12.0487C4.99722 11.972 5.00241 11.8801 5.04989 11.8083L6.32828 9.8742L6.52777 10.0061L6.36922 9.82706L9.48461 7.06749C9.55397 7.00605 9.65258 6.99022 9.73769 7.02684ZM6.7099 10.1642L5.68156 11.72L9.55774 11.8921L9.421 7.76274L6.7099 10.1642ZM12.6069 7.71408L12.5181 11.8922L16.3878 11.7201L15.3534 10.1651L12.6069 7.71408ZM14.9949 15.4417C15.0746 15.4748 15.1303 15.5483 15.1405 15.634L15.5212 18.8145C15.5316 18.9014 15.4937 18.987 15.4224 19.0377C15.3512 19.0885 15.2578 19.0962 15.1792 19.0579L12.4354 17.7231C12.3352 17.6744 12.282 17.5629 12.307 17.4544C12.3206 17.3953 12.3554 17.3456 12.4023 17.3125L14.7559 15.474C14.8239 15.4209 14.9152 15.4085 14.9949 15.4417ZM12.9894 17.4608L14.9942 18.4361L14.7161 16.112L12.9894 17.4608ZM7.06692 15.4423C7.14665 15.409 7.23815 15.4213 7.30625 15.4745L9.66933 17.3196C9.73433 17.3703 9.76859 17.451 9.75999 17.533C9.7514 17.615 9.70116 17.6868 9.62706 17.723L6.89141 19.0583L6.78651 18.8434L6.54901 18.8155L6.92157 15.6351C6.93163 15.5493 6.98719 15.4756 7.06692 15.4423ZM7.07494 18.4365L9.07337 17.461L7.34711 16.1131L7.07494 18.4365Z"
    fill="#E4761B"
  />
  <path
    d="M15.2836 18.844L12.5403 17.5087L12.7589 19.2969L12.7345 20.0497L15.2836 18.844ZM6.78638 18.844L9.33551 20.0492L9.31925 19.2969L9.52203 17.5082L6.78638 18.844Z"
    fill="#D7C1B3"
  />
  <path
    fill-rule="evenodd"
    clip-rule="evenodd"
    d="M9.66006 17.3128C9.73138 17.3632 9.76959 17.4484 9.75975 17.5351L9.55879 19.3078L9.5747 20.044C9.57649 20.1268 9.53527 20.2047 9.46575 20.2498C9.39623 20.2949 9.30832 20.3008 9.23341 20.2654L6.68428 19.0601C6.60117 19.0208 6.54795 18.9374 6.54737 18.8455C6.54679 18.7535 6.59896 18.6694 6.68157 18.6291L9.41722 17.2933C9.49567 17.255 9.58875 17.2625 9.66006 17.3128ZM12.4016 17.314C12.4729 17.2631 12.5663 17.2553 12.6451 17.2936L15.3884 18.6289L15.2838 18.844L15.386 19.0601L12.8369 20.2658C12.7615 20.3014 12.6731 20.2953 12.6034 20.2496C12.5338 20.2039 12.4929 20.1252 12.4956 20.0419L12.5194 19.3076L12.3031 17.5377C12.2925 17.4507 12.3302 17.3649 12.4016 17.314ZM14.731 18.8409L12.8312 17.9161L12.9964 19.2679C12.9979 19.28 12.9984 19.2923 12.998 19.3046L12.9863 19.6661L14.731 18.8409ZM7.33861 18.8405L9.08819 19.6677L9.08029 19.302C9.08006 19.2913 9.08055 19.2806 9.08176 19.2699L9.23544 17.9143L7.33861 18.8405Z"
    fill="#D7C1B3"
  />
  <path
    d="M9.37626 14.4811L7.09448 13.8096L8.70479 13.0731L9.37626 14.4811ZM12.6858 14.4811L13.3578 13.0731L14.9762 13.8096L12.6858 14.4811Z"
    fill="#233447"
  />
  <path
    fill-rule="evenodd"
    clip-rule="evenodd"
    d="M8.60544 12.8556C8.72419 12.8013 8.86454 12.8523 8.92075 12.9701L9.59223 14.3781L9.37639 14.481L9.30888 14.7105L7.02709 14.039C6.93137 14.0108 6.8632 13.9262 6.85608 13.8266C6.84896 13.7271 6.9044 13.6336 6.99514 13.5921L8.60544 12.8556ZM8.92992 14.1004L8.59036 13.3884L7.77606 13.7608L8.92992 14.1004ZM13.1421 12.9701C13.1982 12.8524 13.3383 12.8014 13.457 12.8554L15.0754 13.5919C15.1663 13.6333 15.222 13.7269 15.2149 13.8265C15.2078 13.9262 15.1395 14.0109 15.0436 14.039L12.7532 14.7105L12.686 14.481L12.4701 14.3781L13.1421 12.9701ZM13.1323 14.101L14.2922 13.7609L13.4726 13.388L13.1323 14.101Z"
    fill="#233447"
  />
  <path
    d="M6.78661 18.8441L7.17544 15.5585L4.64209 15.6312L6.78661 18.8441ZM14.8955 15.5585L15.2839 18.8441L17.4284 15.6312L14.895 15.5585H14.8955ZM16.8215 11.9409L12.2732 12.1432L12.6941 14.4819L13.366 13.0739L14.9845 13.8104L16.821 11.9409H16.8215ZM7.09461 13.8104L8.71257 13.0739L9.37639 14.4819L9.80539 12.1432L5.24948 11.9409L7.09461 13.8104Z"
    fill="#CD6116"
  />
  <path
    fill-rule="evenodd"
    clip-rule="evenodd"
    d="M5.03083 11.8438C5.07077 11.7539 5.16169 11.6977 5.25996 11.702L9.81587 11.9043C9.88493 11.9074 9.94927 11.9402 9.99233 11.9943C10.0354 12.0483 10.0529 12.1184 10.0405 12.1864L9.61147 14.5251C9.59273 14.6272 9.51017 14.7056 9.40716 14.719C9.30416 14.7325 9.20427 14.6778 9.15997 14.5839L8.59677 13.3893L7.19356 14.0281L7.09448 13.8104L6.92429 13.9784L5.07916 12.1089C5.01006 12.0389 4.99088 11.9337 5.03083 11.8438ZM7.14739 13.5236L8.61337 12.8563C8.73243 12.8021 8.87295 12.8536 8.92874 12.9719L9.27529 13.707L9.52056 12.3699L5.84781 12.2069L7.14739 13.5236ZM16.807 11.7022C16.8116 11.7019 16.8162 11.7018 16.8209 11.7018H16.8214C16.9514 11.7018 17.0575 11.8056 17.0604 11.9356C17.062 12.0073 17.0319 12.0724 16.9827 12.1174L15.1549 13.978C15.0845 14.0497 14.9768 14.0697 14.8853 14.0281L13.4806 13.3888L12.9098 14.5849C12.8651 14.6786 12.765 14.7327 12.6621 14.7189C12.5592 14.7051 12.477 14.6264 12.4586 14.5243L12.0377 12.1856C12.0255 12.1177 12.0432 12.0478 12.0863 11.9939C12.1293 11.9401 12.1936 11.9074 12.2625 11.9043L16.807 11.7022ZM16.2244 12.2068L12.5569 12.37L12.7978 13.709L13.1501 12.9709C13.2063 12.8533 13.3463 12.8023 13.465 12.8563L14.9311 13.5235L16.2244 12.2068ZM7.35176 15.3971C7.39868 15.4484 7.42095 15.5176 7.41278 15.5866L7.02396 18.8722L6.78648 18.8441L6.58759 18.9769L4.44307 15.7639C4.39478 15.6916 4.38958 15.5987 4.4295 15.5214C4.46942 15.4441 4.54816 15.3946 4.6351 15.3921L7.16845 15.3194C7.23793 15.3175 7.30485 15.3458 7.35176 15.3971ZM6.62525 18.1718L6.90528 15.8055L5.08074 15.8578L6.62525 18.1718ZM14.6558 15.555C14.6577 15.4243 14.7642 15.3193 14.8949 15.3193H14.8954C14.8986 15.3193 14.9018 15.3194 14.905 15.3195L17.4351 15.3921C17.5221 15.3946 17.6008 15.4441 17.6407 15.5214C17.6806 15.5987 17.6755 15.6916 17.6272 15.7639L15.4826 18.9769C15.427 19.0602 15.3254 19.1 15.228 19.0767C15.1305 19.0533 15.058 18.9717 15.0463 18.8722L14.6598 15.6021C14.6569 15.5869 14.6556 15.5711 14.6558 15.555ZM15.1654 15.8055L15.4451 18.1717L16.9895 15.8578L15.1654 15.8055Z"
    fill="#CD6116"
  />
  <path
    d="M5.24951 11.9409L7.15921 15.6637L7.09416 13.8104L5.24951 11.9409ZM14.984 13.8104L14.9037 15.6637L16.8215 11.9409L14.9845 13.8104H14.984ZM9.80542 12.1432L9.37642 14.4819L9.91064 17.2415L10.0316 13.6081L9.80542 12.1432ZM12.2732 12.1432L12.0552 13.6L12.1522 17.2415L12.6941 14.4819L12.2732 12.1432Z"
    fill="#E4751F"
  />
  <path
    fill-rule="evenodd"
    clip-rule="evenodd"
    d="M16.9615 11.7472C17.0573 11.8164 17.0881 11.9453 17.034 12.0504L15.1162 15.7732C15.0647 15.873 14.9508 15.9236 14.8422 15.8948C14.7337 15.866 14.6598 15.7655 14.6647 15.6533L14.745 13.8001C14.7479 13.7342 14.7772 13.6754 14.8226 13.634L16.6508 11.7733C16.7337 11.689 16.8657 11.6779 16.9615 11.7472ZM5.10923 11.7472C5.20488 11.678 5.33671 11.6889 5.41962 11.773L7.26428 13.6425C7.30639 13.6852 7.33094 13.7421 7.33304 13.8021L7.39808 15.6553C7.40201 15.7673 7.32771 15.8669 7.21931 15.8951C7.11091 15.9233 6.99746 15.8725 6.94633 15.7728L5.03664 12.0501C4.98275 11.945 5.01359 11.8164 5.10923 11.7472ZM6.17297 13.2174L6.88251 14.6006L6.85834 13.912L6.17297 13.2174ZM15.2188 13.913L15.1896 14.5862L15.8865 13.2336L15.2188 13.913ZM9.80869 11.9041C9.92538 11.9058 10.0238 11.9914 10.0416 12.1067L10.2679 13.5716C10.2701 13.5863 10.271 13.6012 10.2705 13.6161L10.1495 17.2494C10.1455 17.3711 10.0507 17.4703 9.9294 17.4799C9.80808 17.4895 9.69889 17.4064 9.67576 17.2869L9.14155 14.5274C9.13588 14.4981 9.13574 14.4681 9.14111 14.4388L9.57011 12.1001C9.59117 11.9853 9.692 11.9025 9.80869 11.9041ZM9.61966 14.4807L9.78507 13.579L9.79179 13.6225L9.74214 15.1134L9.61966 14.4807ZM12.5085 12.1009L12.9294 14.4396C12.9346 14.4688 12.9344 14.4988 12.9287 14.528L12.3868 17.2876C12.3633 17.4072 12.2536 17.49 12.1322 17.4798C12.0107 17.4696 11.9163 17.3697 11.9131 17.2479L11.816 13.6064C11.8156 13.5924 11.8165 13.5784 11.8186 13.5646L12.0366 12.1078L12.2731 12.1432L12.5085 12.1009ZM12.2948 13.6137L12.4507 14.48L12.3336 15.0762L12.2947 13.6146L12.2948 13.6137Z"
    fill="#E4751F"
  />
  <path
    d="M12.694 14.4815L12.1521 17.2411L12.5404 17.5084L14.903 15.6633L14.9844 13.8101L12.694 14.4815ZM7.09448 13.8101L7.15905 15.6633L9.52166 17.5084L9.91048 17.2411L9.37627 14.4815L7.09448 13.8101Z"
    fill="#F6851B"
  />
  <path
    fill-rule="evenodd"
    clip-rule="evenodd"
    d="M15.132 13.6218C15.1927 13.6694 15.2268 13.7434 15.2234 13.8205L15.1421 15.6738C15.139 15.7437 15.1055 15.8087 15.0504 15.8518L12.6877 17.6969C12.6054 17.7612 12.491 17.7646 12.405 17.7054L12.0166 17.4381C11.9381 17.384 11.8992 17.2885 11.9176 17.195L12.4594 14.4355L12.6941 14.4815L12.6268 14.2521L14.9172 13.5806C14.9913 13.5589 15.0712 13.5742 15.132 13.6218ZM12.9007 14.6701L12.4171 17.1331L12.5316 17.212L14.6691 15.5427L14.7309 14.1336L12.9007 14.6701ZM6.94804 13.6211C7.00875 13.574 7.0884 13.559 7.16211 13.5807L9.44389 14.2521C9.52964 14.2774 9.59416 14.3483 9.61115 14.4361L10.1454 17.1957C10.1634 17.289 10.1245 17.3843 10.0461 17.4381L9.65726 17.7055C9.57126 17.7646 9.45684 17.7612 9.37459 17.6969L7.01198 15.8518C6.95625 15.8083 6.92264 15.7423 6.92018 15.6716L6.85561 13.8184C6.85294 13.7416 6.88733 13.6682 6.94804 13.6211ZM7.34513 14.1331L7.39427 15.5435L9.53077 17.2121L9.64606 17.1328L9.16927 14.6699L7.34513 14.1331Z"
    fill="#F6851B"
  />
  <path
    d="M12.7345 20.0491L12.7584 19.2963L12.5566 19.1184H9.50529L9.31925 19.2963L9.33551 20.0491L6.78638 18.8434L7.6769 19.5713L9.48138 20.8258H12.5805L14.3931 19.5713L15.2836 18.843L12.7345 20.0491Z"
    fill="#C0AD9E"
  />
  <path
    fill-rule="evenodd"
    clip-rule="evenodd"
    d="M15.4859 18.7152C15.5505 18.8173 15.5287 18.9516 15.4352 19.0281L14.5446 19.7565C14.5397 19.7605 14.5346 19.7644 14.5293 19.768L12.7167 21.0225C12.6767 21.0502 12.6293 21.065 12.5806 21.065H9.48151C9.43271 21.065 9.38508 21.0501 9.34501 21.0222L7.54053 19.7677C7.53544 19.7642 7.53049 19.7604 7.52569 19.7565L6.63517 19.0286C6.54161 18.9521 6.5198 18.8179 6.58435 18.7157C6.6489 18.6136 6.77952 18.5756 6.88875 18.6273L9.08821 19.6676L9.0803 19.3015C9.07885 19.2345 9.10563 19.1699 9.1541 19.1235L9.34015 18.9456C9.38465 18.9031 9.44385 18.8793 9.50542 18.8793H12.5567C12.6149 18.8793 12.6712 18.9006 12.7149 18.9391L12.9167 19.117C12.9702 19.1641 12.9998 19.2327 12.9976 19.304L12.9861 19.6656L15.1815 18.6268C15.2907 18.5751 15.4213 18.6131 15.4859 18.7152ZM12.7346 20.0492L12.4956 20.0416L12.516 19.4013L12.4664 19.3576H9.60136L9.56072 19.3964L9.57471 20.044C9.5765 20.1268 9.53527 20.2047 9.46574 20.2498C9.39622 20.2949 9.3083 20.3008 9.23339 20.2653L8.7978 20.0593L9.55646 20.5867H12.506L13.2588 20.0657L12.8369 20.2653L12.7346 20.0492Z"
    fill="#C0AD9E"
  />
  <path
    d="M12.5399 17.5084L12.1516 17.241H9.90999L9.52164 17.5084L9.31934 19.2971L9.50586 19.1187H12.5567L12.7585 19.2966L12.5404 17.5079L12.5399 17.5084Z"
    fill="#161616"
  />
  <path
    fill-rule="evenodd"
    clip-rule="evenodd"
    d="M9.77427 17.0441C9.81416 17.0166 9.86144 17.0019 9.90987 17.0019H12.1515C12.1999 17.0019 12.2472 17.0166 12.2871 17.0441L12.6608 17.3013C12.7246 17.3385 12.7685 17.4039 12.7777 17.4789L12.9958 19.2676C13.0078 19.3662 12.9577 19.4619 12.8698 19.5082C12.782 19.5544 12.6747 19.5416 12.6003 19.476L12.4662 19.3578H9.60168L9.4845 19.4699C9.41175 19.5395 9.30322 19.556 9.21302 19.5113C9.12283 19.4666 9.07029 19.3702 9.0816 19.2702L9.2839 17.4815C9.29169 17.4127 9.3289 17.3507 9.38592 17.3114L9.77427 17.0441ZM9.60709 18.8795H12.4666L12.3161 17.6447L12.0771 17.4802H9.98422L9.74689 17.6435L9.60709 18.8795Z"
    fill="#161616"
  />
  <path
    d="M20.6651 8.0642L21.3528 4.76277L20.325 1.69568L12.5404 7.47355L15.5343 10.0064L19.7669 11.2451L20.7052 10.1523L20.3006 9.86055L20.9482 9.27037L20.4465 8.88155L21.0941 8.38798L20.6651 8.0642ZM0.717285 4.76277L1.40502 8.0642L0.968372 8.38798L1.61546 8.88155L1.12189 9.27037L1.76946 9.86103L1.36485 10.1523L2.29507 11.2446L6.52768 10.0064L9.52159 7.47355L1.73742 1.69568L0.717285 4.76277Z"
    fill="#763D16"
  />
  <path
    fill-rule="evenodd"
    clip-rule="evenodd"
    d="M1.66559 1.46762C1.73872 1.44455 1.81848 1.45795 1.88006 1.50366L9.66423 7.28153C9.72286 7.32505 9.75839 7.39296 9.76072 7.46594C9.76304 7.53891 9.7319 7.60895 9.67616 7.65611L6.68224 10.189C6.65674 10.2106 6.627 10.2265 6.59493 10.2359L2.36233 11.4741C2.27184 11.5006 2.17425 11.4714 2.11312 11.3997L1.18291 10.3073C1.13959 10.2565 1.11953 10.1898 1.12758 10.1235C1.13562 10.0572 1.17104 9.99724 1.22526 9.95821L1.3907 9.83911L0.960862 9.44705C0.908961 9.39971 0.8805 9.33194 0.883036 9.26174C0.885572 9.19154 0.918848 9.126 0.97403 9.08253L1.22528 8.8846L0.823464 8.57811C0.763706 8.53253 0.728854 8.46151 0.729364 8.38636C0.729874 8.3112 0.765686 8.24066 0.826056 8.1959L1.13984 7.96322L0.483297 4.81153C0.474689 4.77021 0.477172 4.72734 0.490493 4.68729L1.51062 1.6202C1.53483 1.54744 1.59246 1.49069 1.66559 1.46762ZM20.3968 1.46754C20.4699 1.49051 20.5275 1.54708 20.5519 1.6197L21.5797 4.68678C21.5931 4.72698 21.5957 4.77003 21.587 4.81153L20.9302 7.96461L21.2382 8.19711C21.298 8.24218 21.3331 8.3126 21.3333 8.38741C21.3335 8.46223 21.2986 8.53281 21.2391 8.57817L20.839 8.88313L21.0948 9.08136C21.1506 9.12461 21.1844 9.1903 21.1873 9.26084C21.1901 9.33138 21.1616 9.39956 21.1094 9.44711L20.6795 9.83886L20.8452 9.95832C20.8995 9.99747 20.9349 10.0576 20.9428 10.1241C20.9507 10.1905 20.9304 10.2573 20.8868 10.3081L19.9484 11.4009C19.8872 11.4722 19.79 11.501 19.6998 11.4746L15.4672 10.2359C15.4352 10.2265 15.4054 10.2105 15.38 10.189L12.386 7.65611C12.3303 7.60895 12.2992 7.53891 12.3015 7.46593C12.3038 7.39296 12.3393 7.32504 12.398 7.28153L20.1826 1.50366C20.2441 1.45801 20.3238 1.44458 20.3968 1.46754ZM20.6652 8.0642L20.4311 8.01543L21.1056 4.77737L20.2031 2.08406L12.9252 7.4858L15.6502 9.79114L19.6861 10.9723L20.3543 10.194L20.1609 10.0545C20.1025 10.0124 20.0661 9.94614 20.062 9.87421C20.0579 9.80228 20.0864 9.73233 20.1397 9.6838L20.5771 9.28518L20.3001 9.07056C20.2414 9.02506 20.2072 8.95486 20.2075 8.88058C20.2078 8.8063 20.2426 8.73638 20.3017 8.69136L20.6985 8.38892L20.5211 8.25507L20.6652 8.0642ZM1.86021 2.08454L0.964649 4.77708L1.63925 8.01543C1.65826 8.10672 1.62248 8.20074 1.54757 8.25628L1.36633 8.39068L1.7606 8.69141C1.81938 8.73625 1.85412 8.80575 1.8547 8.87968C1.85528 8.9536 1.82163 9.02364 1.76356 9.06939L1.49149 9.28372L1.93072 9.68435C1.98397 9.73291 2.01247 9.80289 2.00831 9.87483C2.00415 9.94677 1.96777 10.013 1.90928 10.0551L1.71524 10.1948L2.37677 10.9716L6.41202 9.79113L9.13699 7.48579L1.86021 2.08454Z"
    fill="#763D16"
  />
  <path
    d="M19.7666 11.2446L15.5344 10.0063L16.8209 11.9404L14.9031 15.6632L17.4283 15.6307H21.1913L19.767 11.245L19.7666 11.2446ZM6.52781 10.0063L2.29521 11.245L0.887207 15.6307H4.64251L7.15912 15.6632L5.24942 11.9404L6.52781 10.0063ZM12.2736 12.1427L12.5405 7.47347L13.7706 4.14764H8.30838L9.52221 7.47347L9.80534 12.1427L9.90242 13.6158L9.91055 17.241H12.1522L12.1684 13.6158L12.2736 12.1427Z"
    fill="#F6851B"
  />
  <path
    fill-rule="evenodd"
    clip-rule="evenodd"
    d="M8.11231 4.01063C8.15706 3.94667 8.2302 3.90857 8.30826 3.90857H13.7705C13.8487 3.90857 13.922 3.94684 13.9667 4.01105C14.0114 4.07525 14.0219 4.15727 13.9948 4.23065L12.7771 7.52291L12.5121 12.1598L12.4074 13.6249L12.3912 17.2421C12.3906 17.3738 12.2837 17.4802 12.152 17.4802H9.91043C9.77857 17.4802 9.6716 17.3734 9.6713 17.2416L9.66319 13.624L9.5666 12.1585L9.56652 12.1573L9.2855 7.52278L8.08362 4.22969C8.05686 4.15636 8.06757 4.07459 8.11231 4.01063ZM8.65009 4.38683L9.74672 7.39154C9.75464 7.41325 9.75938 7.43599 9.76077 7.45905L10.0438 12.1271L10.0439 12.1283L10.1409 13.6001C10.1412 13.6052 10.1414 13.6102 10.1414 13.6153L10.149 17.0019H11.914L11.9292 13.6148C11.9292 13.6094 11.9294 13.6041 11.9298 13.5988L12.0349 12.1274L12.3016 7.45988C12.303 7.43619 12.3079 7.41283 12.3161 7.39057L13.4271 4.38683H8.65009ZM6.7201 9.86441C6.77969 9.94516 6.78252 10.0545 6.72718 10.1383L5.52587 11.9557L7.37177 15.5541C7.41004 15.6287 7.40643 15.718 7.36225 15.7892C7.31807 15.8605 7.23977 15.9035 7.15591 15.9024L4.64085 15.8699H0.887082C0.810682 15.8699 0.738882 15.8334 0.693868 15.7716C0.648853 15.7099 0.636044 15.6304 0.659397 15.5576L2.0674 11.172C2.09165 11.0965 2.15178 11.0379 2.22792 11.0156L6.46052 9.77689C6.55684 9.7487 6.66052 9.78366 6.7201 9.86441ZM15.3417 9.8647C15.4012 9.78375 15.505 9.74867 15.6014 9.77689L19.8336 11.0151C19.8721 11.0264 19.9072 11.0471 19.9355 11.0755L19.936 11.076C19.9627 11.1027 19.9827 11.1353 19.9943 11.1712L21.4186 15.5569C21.4422 15.6297 21.4296 15.7094 21.3846 15.7713C21.3396 15.8332 21.2677 15.8699 21.1912 15.8699H17.4282L14.9061 15.9024C14.8221 15.9035 14.7438 15.8605 14.6996 15.7891C14.6555 15.7177 14.652 15.6284 14.6904 15.5538L16.5439 11.9559L15.3352 10.1388C15.2795 10.0552 15.2821 9.94564 15.3417 9.8647ZM16.0967 10.4201L17.0199 11.808C17.068 11.8803 17.0731 11.9729 17.0334 12.05L15.2978 15.419L17.4282 15.3916L20.8621 15.3916L19.5784 11.4387L16.0967 10.4201ZM2.48399 11.439L1.21501 15.3916H4.64548L6.76495 15.419L5.03653 12.0496C4.99711 11.9728 5.00219 11.8807 5.04981 11.8086L5.96811 10.4193L2.48399 11.439Z"
    fill="#F6851B"
  />
</svg>
