<svg
  width="41"
  height="41"
  viewBox="0 0 41 41"
  fill="none"
  xmlns="http://www.w3.org/2000/svg"
>
  <rect
    x="0.58252"
    y="1.50006"
    width="39"
    height="39"
    rx="19.5"
    stroke="#F7CD7B"
  />
  <rect
    opacity="0.44"
    x="3.29248"
    y="4.0213"
    width="33.9575"
    height="33.9575"
    rx="16.9788"
    stroke="white"
    stroke-width="0.5"
  />
  <rect
    opacity="0.18"
    x="5.8479"
    y="6.57671"
    width="28.8467"
    height="28.8467"
    rx="14.4234"
    stroke="white"
    stroke-width="0.5"
  />
  <rect
    opacity="0.06"
    x="8.50586"
    y="9.23465"
    width="23.5308"
    height="23.5308"
    rx="11.7654"
    stroke="white"
    stroke-width="0.5"
  />
  <rect
    opacity="0.04"
    x="11.1218"
    y="11.8506"
    width="18.299"
    height="18.299"
    rx="9.1495"
    stroke="white"
    stroke-width="0.5"
  />
  <g filter="url(#filter0_dd_1839_10663)">
    <rect
      x="13.5356"
      y="21.0001"
      width="9.259"
      height="9.259"
      transform="rotate(-45 13.5356 21.0001)"
      fill="white"
    />
  </g>
  <rect
    x="23.6921"
    y="5.81691"
    width="1.62136"
    height="1.62136"
    fill="white"
    fill-opacity="0.12"
  />
  <rect
    x="5.60376"
    y="9.32172"
    width="1.62136"
    height="1.62136"
    fill="white"
    fill-opacity="0.12"
  />
  <rect
    x="25.491"
    y="0.153244"
    width="1.62136"
    height="1.62136"
    fill="white"
    fill-opacity="0.12"
  />
  <rect
    x="36.1921"
    y="24.1494"
    width="1.62136"
    height="1.62136"
    fill="white"
    fill-opacity="0.12"
  />
  <rect
    x="13.6794"
    y="31.088"
    width="1.62136"
    height="1.62136"
    fill="white"
    fill-opacity="0.12"
  />
  <rect
    x="11.8093"
    y="26.2239"
    width="1.62136"
    height="1.62136"
    fill="#F7CD7B"
  />
  <rect
    x="0.0825195"
    y="14.0154"
    width="1.62136"
    height="1.62136"
    fill="white"
  />
  <rect x="12.9099" y="2.62143" width="1.62136" height="1.62136" fill="white" />
  <rect x="14.5312" y="1.00006" width="1.62136" height="1.62136" fill="white" />
  <rect x="11.5471" y="10.53" width="1.62136" height="1.62136" fill="#F7CD7B" />
  <rect x="38.4612" y="26.7999" width="1.62136" height="1.62136" fill="white" />
  <rect
    x="36.8401"
    y="36.136"
    width="1.62136"
    height="1.62136"
    fill="#F7CD7B"
  />
  <rect
    x="36.8401"
    y="39.3787"
    width="1.62136"
    height="1.62136"
    fill="#F7CD7B"
  />
  <rect
    x="38.4612"
    y="37.7573"
    width="1.62136"
    height="1.62136"
    fill="#F7CD7B"
  />
  <rect
    x="35.2185"
    y="37.7573"
    width="1.62136"
    height="1.62136"
    fill="#F7CD7B"
  />
  <rect
    x="31.0037"
    y="20.2581"
    width="1.62136"
    height="1.62136"
    fill="#F7CD7B"
  />
  <rect x="23.9407" y="32.2562" width="1.62136" height="1.62136" fill="white" />
  <rect
    x="28.0496"
    y="35.1747"
    width="1.62136"
    height="1.62136"
    fill="#F7CD7B"
  />
  <rect
    x="1.70435"
    y="1.00006"
    width="1.62136"
    height="1.62136"
    fill="#F7CD7B"
  />
  <rect
    x="1.70435"
    y="4.2428"
    width="1.62136"
    height="1.62136"
    fill="#F7CD7B"
  />
  <rect
    x="3.32568"
    y="2.62143"
    width="1.62136"
    height="1.62136"
    fill="#F7CD7B"
  />
  <rect
    x="0.0825195"
    y="2.62143"
    width="1.62136"
    height="1.62136"
    fill="#F7CD7B"
  />
  <rect x="1.70435" y="36.136" width="1.62136" height="1.62136" fill="white" />
  <rect x="1.70435" y="39.3787" width="1.62136" height="1.62136" fill="white" />
  <rect x="3.32568" y="37.7573" width="1.62136" height="1.62136" fill="white" />
  <rect
    x="0.0825195"
    y="37.7573"
    width="1.62136"
    height="1.62136"
    fill="white"
  />
  <rect x="36.8398" y="1.00006" width="1.62136" height="1.62136" fill="white" />
  <rect x="36.8398" y="4.2428" width="1.62136" height="1.62136" fill="white" />
  <rect x="38.4612" y="2.62143" width="1.62136" height="1.62136" fill="white" />
  <rect x="35.218" y="2.62143" width="1.62136" height="1.62136" fill="white" />
  <defs>
    <filter
      id="filter0_dd_1839_10663"
      x="3.53564"
      y="4.45296"
      width="33.0942"
      height="33.0942"
      filterUnits="userSpaceOnUse"
      color-interpolation-filters="sRGB"
    >
      <feFlood flood-opacity="0" result="BackgroundImageFix" />
      <feColorMatrix
        in="SourceAlpha"
        type="matrix"
        values="0 0 0 0 0 0 0 0 0 0 0 0 0 0 0 0 0 0 127 0"
        result="hardAlpha"
      />
      <feOffset />
      <feGaussianBlur stdDeviation="5" />
      <feComposite in2="hardAlpha" operator="out" />
      <feColorMatrix
        type="matrix"
        values="0 0 0 0 1 0 0 0 0 1 0 0 0 0 1 0 0 0 0.55 0"
      />
      <feBlend
        mode="normal"
        in2="BackgroundImageFix"
        result="effect1_dropShadow_1839_10663"
      />
      <feColorMatrix
        in="SourceAlpha"
        type="matrix"
        values="0 0 0 0 0 0 0 0 0 0 0 0 0 0 0 0 0 0 127 0"
        result="hardAlpha"
      />
      <feOffset />
      <feGaussianBlur stdDeviation="1.5" />
      <feComposite in2="hardAlpha" operator="out" />
      <feColorMatrix
        type="matrix"
        values="0 0 0 0 1 0 0 0 0 1 0 0 0 0 1 0 0 0 0.77 0"
      />
      <feBlend
        mode="normal"
        in2="effect1_dropShadow_1839_10663"
        result="effect2_dropShadow_1839_10663"
      />
      <feBlend
        mode="normal"
        in="SourceGraphic"
        in2="effect2_dropShadow_1839_10663"
        result="shape"
      />
    </filter>
  </defs>
</svg>
