<svg viewBox="0 0 17 15" fill="none" xmlns="http://www.w3.org/2000/svg">
  <path
    d="M12.7558 6.33435C11.9934 3.48922 9.06896 1.80077 6.22382 2.56313C5.29938 2.81083 4.49705 3.28679 3.86125 3.91408C3.85217 3.92403 3.84288 3.93375 3.8333 3.94331C3.68554 4.0911 3.54827 4.24535 3.42146 4.40523C2.42489 5.66168 2.07588 7.26346 2.37446 8.76175C2.39682 8.87289 2.42282 8.98408 2.45259 9.09508C2.54795 9.45117 2.67722 9.78908 2.83596 10.1063C3.0856 10.604 3.41807 11.0706 3.83326 11.4858C4.00169 11.6542 4.1785 11.8089 4.36241 11.9501C5.56954 12.8765 7.08215 13.2166 8.5135 12.9703C8.67054 12.9429 8.82765 12.9083 8.98453 12.8663C8.99631 12.8631 9.00811 12.8603 9.0199 12.8577C9.88279 12.6211 10.6978 12.1637 11.3758 11.4858C11.7229 11.1387 12.2857 11.1387 12.6328 11.4858C12.98 11.8329 12.98 12.3957 12.6329 12.7429C11.5496 13.8262 10.2037 14.4869 8.80005 14.725C7.7146 14.9116 6.63437 14.8388 5.62916 14.5471C3.79099 14.0139 2.20388 12.7489 1.29502 10.9986C0.971684 10.3778 0.746149 9.71926 0.61846 9.04581C0.400581 7.90891 0.468769 6.77448 0.776666 5.72283C1.02983 4.85203 1.45277 4.02004 2.04541 3.27914C2.96003 2.13103 4.23696 1.25502 5.76369 0.845926C9.55723 -0.17055 13.4565 2.08072 14.473 5.87427L14.6499 6.53461L15.2815 5.44165C15.4779 5.10159 15.9129 4.9852 16.253 5.18172C16.593 5.3782 16.7093 5.81313 16.5129 6.1532L14.9419 8.87214L14.5862 9.48764L13.9706 9.13221L13.8995 9.09114C13.7921 9.05396 13.6927 8.99654 13.6068 8.92215L11.2517 7.5624C10.9116 7.36604 10.795 6.93111 10.9914 6.59099C11.1878 6.25088 11.6227 6.13436 11.9628 6.33072L12.8997 6.87166L12.7558 6.33435Z"
    fill="currentColor"
  />
</svg>
