<svg width="18" height="19" viewBox="0 0 18 19" fill="none" xmlns="http://www.w3.org/2000/svg">
<path d="M16.2887 9.75209V8.73848L17.5607 7.6255C17.7952 7.41884 17.9491 7.13594 17.9951 6.8268C18.0412 6.51767 17.9765 6.2022 17.8125 5.93615L16.249 3.28619C16.1328 3.08497 15.9658 2.91784 15.7646 2.80156C15.5634 2.68528 15.3352 2.62394 15.1029 2.6237C14.9589 2.6226 14.8157 2.64498 14.6789 2.68995L13.069 3.23319C12.7915 3.04789 12.5015 2.88188 12.2012 2.73633L11.8633 1.06685C11.8027 0.761845 11.6368 0.487863 11.3946 0.292867C11.1523 0.0978707 10.8492 -0.00571476 10.5383 0.000243419H7.43788C7.12698 -0.00571476 6.82388 0.0978707 6.58165 0.292867C6.33941 0.487863 6.17348 0.761845 6.1129 1.06685L5.77503 2.73633C5.47291 2.88251 5.18078 3.04849 4.90055 3.23319L3.32382 2.66345C3.18556 2.62743 3.04238 2.61401 2.89983 2.6237C2.66748 2.62394 2.43927 2.68528 2.23811 2.80156C2.03695 2.91784 1.8699 3.08497 1.75372 3.28619L0.190245 5.93615C0.0356112 6.2018 -0.0218501 6.51295 0.0277026 6.81631C0.0772552 7.11967 0.230738 7.39636 0.461866 7.599L1.71397 8.74511V9.75872L0.461866 10.8717C0.22421 11.0757 0.0665286 11.3574 0.0168042 11.6667C-0.0329202 11.9759 0.0285284 12.2928 0.190245 12.561L1.75372 15.211C1.8699 15.4122 2.03695 15.5794 2.23811 15.6956C2.43927 15.8119 2.66748 15.8733 2.89983 15.8735C3.04382 15.8746 3.18703 15.8522 3.32382 15.8072L4.93367 15.264C5.21124 15.4493 5.50121 15.6153 5.80153 15.7609L6.1394 17.4303C6.19998 17.7354 6.36591 18.0093 6.60814 18.2043C6.85038 18.3993 7.15347 18.5029 7.46438 18.497H10.5913C10.9022 18.5029 11.2053 18.3993 11.4476 18.2043C11.6898 18.0093 11.8557 17.7354 11.9163 17.4303L12.2542 15.7609C12.5563 15.6147 12.8484 15.4487 13.1287 15.264L14.7319 15.8072C14.8687 15.8522 15.0119 15.8746 15.1559 15.8735C15.3882 15.8733 15.6164 15.8119 15.8176 15.6956C16.0188 15.5794 16.1858 15.4122 16.302 15.211L17.8125 12.561C17.9671 12.2954 18.0246 11.9842 17.975 11.6809C17.9255 11.3775 17.772 11.1008 17.5409 10.8982L16.2887 9.75209ZM15.1029 14.5485L12.8306 13.78C12.2983 14.2301 11.6904 14.5823 11.0352 14.8201L10.5648 17.1985H7.43788L6.96752 14.8466C6.31745 14.6021 5.71286 14.2506 5.17879 13.8065L2.89983 14.5485L1.33635 11.8986L3.13832 10.3086C3.01583 9.62281 3.01583 8.92076 3.13832 8.23499L1.33635 6.59864L2.89983 3.94868L5.17217 4.71717C5.70443 4.26707 6.31229 3.91491 6.96752 3.67706L7.43788 1.29872H10.5648L11.0352 3.65056C11.6853 3.89509 12.2899 4.24665 12.8239 4.69067L15.1029 3.94868L16.6664 6.59864L14.8644 8.18862C14.9869 8.87439 14.9869 9.57644 14.8644 10.2622L16.6664 11.8986L15.1029 14.5485Z" fill="white"/>
<path d="M9.00131 13.2238C8.21514 13.2238 7.44662 12.9907 6.79295 12.5539C6.13927 12.1171 5.6298 11.4963 5.32894 10.77C5.02809 10.0437 4.94937 9.24446 5.10275 8.47339C5.25612 7.70233 5.6347 6.99407 6.1906 6.43816C6.74651 5.88225 7.45477 5.50368 8.22584 5.3503C8.9969 5.19693 9.79613 5.27565 10.5225 5.5765C11.2488 5.87736 11.8696 6.38683 12.3063 7.04051C12.7431 7.69418 12.9762 8.4627 12.9762 9.24887C12.9816 9.77234 12.8824 10.2916 12.6845 10.7763C12.4866 11.2609 12.194 11.7012 11.8239 12.0714C11.4537 12.4416 11.0134 12.7342 10.5287 12.9321C10.0441 13.1299 9.52478 13.2291 9.00131 13.2238ZM9.00131 6.59891C8.65108 6.59075 8.30283 6.65372 7.97764 6.784C7.65244 6.91428 7.35705 7.10918 7.10934 7.3569C6.86162 7.60461 6.66673 7.9 6.53644 8.2252C6.40616 8.55039 6.34319 8.89864 6.35135 9.24887C6.34319 9.59909 6.40616 9.94734 6.53644 10.2725C6.66673 10.5977 6.86162 10.8931 7.10934 11.1408C7.35705 11.3886 7.65244 11.5834 7.97764 11.7137C8.30283 11.844 8.65108 11.907 9.00131 11.8988C9.35154 11.907 9.69978 11.844 10.025 11.7137C10.3502 11.5834 10.6456 11.3886 10.8933 11.1408C11.141 10.8931 11.3359 10.5977 11.4662 10.2725C11.5965 9.94734 11.6594 9.59909 11.6513 9.24887C11.6594 8.89864 11.5965 8.55039 11.4662 8.2252C11.3359 7.9 11.141 7.60461 10.8933 7.3569C10.6456 7.10918 10.3502 6.91428 10.025 6.784C9.69978 6.65372 9.35154 6.59075 9.00131 6.59891Z" fill="white"/>
</svg>
