<svg viewBox="0 0 16 17" fill="none" xmlns="http://www.w3.org/2000/svg">
  <path
    d="M0.976 7.12177C0.868874 7.0089 0.808694 6.85584 0.808694 6.69624C0.808694 6.53664 0.868874 6.38357 0.976 6.2707L6.28571 0.676759L6.36571 0.605736C6.47581 0.526095 6.60892 0.489592 6.74191 0.502566C6.8749 0.515541 6.99938 0.577174 7.09371 0.676759L7.16 0.761024C7.23584 0.877042 7.27074 1.01736 7.25863 1.15765C7.24652 1.29793 7.18818 1.42932 7.09371 1.52903L2.76 6.09375H15.4286C15.5801 6.09375 15.7255 6.15716 15.8326 6.27004C15.9398 6.38291 16 6.53601 16 6.69564C16 6.85527 15.9398 7.00836 15.8326 7.12124C15.7255 7.23411 15.5801 7.29752 15.4286 7.29752H1.37943C1.22817 7.29749 1.08309 7.23429 0.976 7.12177ZM0 10.307C0 10.1473 0.0602039 9.99424 0.167368 9.88136C0.274531 9.76849 0.419876 9.70508 0.571429 9.70508H14.6206C14.7335 9.7051 14.8439 9.74037 14.9378 9.80643C15.0317 9.8725 15.1049 9.96639 15.1482 10.0763C15.1915 10.1861 15.2029 10.307 15.181 10.4237C15.1591 10.5404 15.1049 10.6477 15.0251 10.7319L9.71429 16.3258L9.63429 16.3969C9.51668 16.4804 9.37382 16.515 9.23337 16.494C9.09293 16.4729 8.9649 16.3977 8.87411 16.2829C8.78332 16.1681 8.73623 16.0218 8.74196 15.8725C8.7477 15.7232 8.80585 15.5815 8.90514 15.4748L13.2434 10.9089H0.571429C0.419876 10.9089 0.274531 10.8454 0.167368 10.7326C0.0602039 10.6197 0 10.4666 0 10.307Z"
    fill="url(#paint0_linear_64_331)"
  />
  <defs>
    <linearGradient
      id="paint0_linear_64_331"
      x1="0"
      y1="8.5"
      x2="16"
      y2="8.5"
      gradientUnits="userSpaceOnUse"
    >
      <stop stop-color="#4CD48B" />
      <stop offset="1" stop-color="#778CFC" />
    </linearGradient>
  </defs>
</svg>
