<svg
  width="392"
  height="355"
  viewBox="0 0 392 355"
  fill="none"
  xmlns="http://www.w3.org/2000/svg"
>
  <path
    d="M1.53029 210.557C0.475133 206.487 -0.127816 194.428 0.0229214 182.067V181.916C0.173658 170.159 0.538943 157.697 0.991154 162.219C1.29263 166.741 5.94692 170.28 6.85134 171.335C7.9065 172.391 8.49089 178.896 12.7115 179.8C18.741 181.157 23.3872 187.042 36.652 198.045C45.6962 205.582 57.0015 214.476 61.5236 217.792C66.0457 221.108 78.1047 230.605 88.3548 238.895C98.4542 247.186 110.664 256.984 115.487 260.752C120.311 264.52 129.355 271.304 135.535 275.976C141.716 280.649 151.061 287.131 156.488 290.598C161.914 293.914 170.054 298.436 174.576 300.547C179.099 302.657 186.183 304.918 190.404 305.37C194.624 305.973 201.257 305.672 205.477 304.616C209.547 303.712 219.798 299.039 228.088 294.216C236.379 289.543 252.357 278.69 263.511 270.248C274.666 261.807 289.739 250.351 296.975 244.623C304.21 239.046 319.435 226.685 330.891 217.49C342.347 208.145 356.215 196.689 361.792 192.167C367.52 187.645 372.343 183.876 372.796 183.876C373.248 183.876 373.649 176.756 386.461 173.289L389.717 164.173C389.717 156.359 391.186 170.159 391.336 181.916C391.487 194.428 390.884 206.487 389.829 210.557C388.472 216.285 386.06 219.751 378.976 226.836C373.851 231.81 351.542 250.2 329.233 267.535C306.924 285.021 275.269 309.591 259.14 322.253C242.86 334.915 225.224 347.426 219.798 350.139C210.904 354.51 208.794 354.963 195.68 354.963C182.565 354.963 180.455 354.51 171.562 350.139C166.135 347.426 150.157 336.271 136.138 325.267C121.969 314.264 90.4651 289.543 66.0457 270.55C41.6263 251.406 17.5084 231.81 12.3834 226.836C5.29872 219.751 2.88692 216.285 1.53029 210.557Z"
    fill="#222222"
  />
  <path
    d="M166.444 7.76519C170.665 5.3534 176.996 2.33866 180.764 1.43424C184.684 0.379079 192.823 -0.223869 199.004 0.077605C206.842 0.379079 212.871 1.73571 218.599 4.29824C223.122 6.25782 233.07 12.5888 240.456 18.3168C247.842 23.8941 258.394 32.0339 263.82 36.4052C269.247 40.6259 294.269 60.3724 319.593 79.9682C344.917 99.7148 369.789 119.461 374.914 123.983C380.19 128.506 385.918 134.987 387.726 138.605C390.741 144.182 390.026 150.853 390.677 167.782C390.753 169.738 390.026 170.387 390.026 170.387C389.375 171.689 388.073 173.642 384.166 177.549C379.192 182.524 368.733 187.745 361.8 193.473C356.373 197.845 342.656 209.15 331.2 218.496C319.744 227.691 304.52 240.051 297.284 245.628C290.049 251.356 274.975 262.812 263.82 271.254C252.666 279.695 236.688 290.548 228.397 295.221C220.107 300.044 209.857 304.717 205.787 305.622C201.566 306.677 194.934 306.978 190.713 306.375C186.492 305.923 179.408 303.662 174.886 301.552C170.364 299.441 162.224 294.919 156.797 291.603C151.371 288.136 142.025 281.654 135.845 276.982C129.665 272.309 120.62 265.526 115.797 261.757C110.973 257.989 98.7634 248.191 88.6641 239.9C78.4139 231.61 66.355 222.113 61.8329 218.797C57.3108 215.481 46.0055 206.587 36.9613 199.05C23.6964 188.047 18.5031 187.325 13.0208 183.409C8.46283 180.154 9.11396 180.805 7.8117 179.503C6.45506 178.146 0.799984 173.927 0.649247 163.224C0.347773 148.603 1.23657 144.182 4.25131 138.605C6.06015 134.987 11.4867 128.807 16.1595 124.586C20.9831 120.516 35.1524 109.06 47.6636 99.4133C60.1748 89.6154 90.3222 66.1004 114.742 46.9568C139.161 27.964 162.374 10.3277 166.444 7.76519Z"
    fill="black"
  />
  <path
    d="M62.5828 124.886C71.627 117.801 81.8771 110.415 85.1933 108.455C89.414 106.043 93.6346 104.988 99.2119 104.988C103.433 104.988 109.311 106.043 112.025 107.249C114.587 108.455 124.234 115.389 133.429 122.474C142.624 129.558 155.135 139.206 161.316 144.18C167.496 149.003 179.856 158.651 188.599 165.585C197.342 172.368 214.676 185.934 227.037 195.581C239.397 205.228 251.155 215.026 253.265 217.287C256.129 220.302 257.034 223.015 257.034 227.688C257.034 231.306 255.978 235.376 254.772 236.883C253.567 238.391 244.372 246.078 234.423 254.067C224.474 261.906 213.621 269.895 210.305 271.854C206.084 274.266 201.864 275.321 196.437 275.321C191.463 275.321 186.338 274.266 182.871 272.457C179.705 270.799 169.908 263.865 161.165 256.931C152.422 249.997 124.234 227.99 98.6089 208.092C72.9836 188.044 49.0164 168.901 45.248 165.585C39.0678 160.158 38.4648 158.952 38.4648 152.772C38.4648 147.496 39.3693 144.934 42.2333 141.919C44.3436 139.658 53.5385 132.121 62.5828 124.886Z"
    fill="#778CFC"
  />
  <path
    d="M166.591 43.4811C171.565 39.7127 178.349 35.0398 181.665 33.0802C185.885 30.6684 190.106 29.6133 195.985 29.6133C202.466 29.6133 205.933 30.6684 211.812 33.9847C215.882 36.3964 226.434 44.084 235.176 51.1687C243.919 58.2533 252.36 65.4887 254.019 67.2975C256.028 69.5084 257.033 72.7743 257.033 77.0954C257.033 80.5624 255.978 84.6323 254.772 86.1397C253.566 87.647 244.371 95.3346 234.423 103.324C224.474 111.162 213.621 119.302 210.305 121.111C206.084 123.522 201.863 124.578 195.985 124.578C189.503 124.578 186.036 123.522 180.157 120.056C176.087 117.644 164.782 109.353 155.286 101.666C145.789 93.978 137.047 85.6875 135.841 83.1249C134.333 79.9594 134.183 77.0954 135.087 73.327C136.142 69.5586 139.308 65.7902 146.995 59.3085C152.723 54.3342 161.617 47.2495 166.591 43.4811Z"
    fill="#81FD9D"
  />
  <path
    d="M276.179 109.205C278.591 107.697 282.962 105.888 286.128 105.135H285.977C289.142 104.532 293.815 104.23 296.227 104.683C298.639 104.984 303.764 107.094 307.532 109.054C311.301 111.014 322.455 119.304 332.404 127.293C345.217 137.694 350.945 143.422 352.452 147.19C354.412 151.863 354.261 153.069 351.849 158.496C349.739 163.018 344.011 168.444 330.143 179.297C319.742 187.437 308.588 195.577 305.271 197.235C301.201 199.345 296.679 200.25 291.253 200.099C287.032 200.099 281.907 199.044 280.098 198.14C278.139 197.084 268.491 190 258.543 182.463C248.594 174.775 238.344 166.485 235.932 163.771C232.315 160.003 231.41 157.742 231.41 152.466C231.41 147.19 232.315 144.929 235.932 141.161C238.344 138.448 247.539 130.76 256.282 124.128C264.874 117.344 273.918 110.561 276.179 109.205Z"
    fill="#F9A58B"
  />
</svg>
